<svg xmlns="http://www.w3.org/2000/svg" viewBox="0 0 409.6 110.9">
<g>
	<path fill="#FFFFFF" d="M110.5,0v35.5h21v6h-21v47.9c0,9.4,2.9,15.2,10.7,15.2c3.8,0,6.6-0.5,8.4-1.1l0.9,5.5
		c-2.5,0.9-5.8,1.7-10.3,1.7c-5.4,0-9.8-1.7-12.6-5.1c-3.4-3.8-4.6-10.1-4.6-17.7V41.5H90.7v-6h12.4V2.8L110.5,0z"/>
	<path fill="#FFFFFF" d="M186,110.9c-19,0-33.8-14.9-33.8-37.9c0-25.2,16.6-39.2,34.9-39.2c20.4,0,34.2,15.4,34.2,37.9
		c0,27.3-18.9,39.2-35.2,39.2H186z M186.5,104.7c15.4,0,27.5-13.8,27.5-32.7c0-13.5-7.5-32.1-27-32.1c-18.9,0-27.3,16.7-27.3,32.6
		c0,18.4,11.7,32.2,26.7,32.2H186.5z"/>
	<path fill="#960F7C" d="M310.4,0v92.1c0,5.4,0.2,11.8,0.6,17h-6.6l-0.6-14h-0.3c-3.8,8.1-12.6,15.7-26.3,15.7
		c-18.3,0-31.8-15.2-31.8-37.2c-0.2-24.6,15-39.9,33.2-39.9c12.7,0,20.9,6.6,24.1,13.1h0.3V0H310.4z M303,64.7c0-2-0.2-4.6-0.8-6.8
		c-2.5-9.8-11.2-18-23.2-18c-16.1,0-26.3,14-26.3,33c0,16.6,8.3,31.8,25.8,31.8c10.6,0,20.6-7.1,23.6-19.2c0.6-1.8,0.8-3.8,0.8-6.1
		V64.7z"/>
	<path fill="#960F7C" d="M374.3,110.9c-19,0-33.8-14.9-33.8-37.9c0-25.2,16.6-39.2,34.9-39.2c20.4,0,34.2,15.4,34.2,37.9
		c0,27.3-18.9,39.2-35.2,39.2H374.3z M374.8,104.7c15.4,0,27.5-13.8,27.5-32.7c0-13.5-7.5-32.1-27-32.1c-18.9,0-27.3,16.7-27.3,32.6
		c0,18.4,11.7,32.2,26.7,32.2H374.8z"/>
</g>
<g>
	<path fill="#FFFFFF" d="M54.7,100.8c-4.9,2.8-10.2,4.3-16.2,4.3C20.2,105,6.2,90.5,6.2,72.4c0-18.1,14.4-32.5,32.7-32.5
		c7.2,0,13.3,2.1,18.8,6.1l4.5-4.1c-6.5-4.9-14.7-7.9-23.3-7.9C17.7,33.9,0,51.3,0,72.4c0,21.1,17.8,38.5,38.9,38.5
		c7.4,0,14.4-2.2,20.4-5.9C59.3,105,56.1,102.1,54.7,100.8z"/>
	<ellipse fill="#960F7C" cx="32.3" cy="72.4" rx="9.1" ry="8.7"/>
	<g>
		<path fill="#960F7C" d="M51.4,55l-6.8,6.2c1.8,1.8,4.4,5.5,4.4,11.2c0,7-4.3,11.3-6.7,13.5l6.8,6.3c2.5-1.6,9.3-8.7,9.3-19.7
			C58.4,63.6,54.1,57.8,51.4,55z"/>
		<path fill="#960F7C" d="M64,43.5l-6.3,5.8c3.4,3.7,9.1,11.3,9.1,23.7c0,15.3-10.6,24.5-11.4,25.1l6.2,5.7
			c1.3-1,14.6-11.2,14.6-30.8C76.2,58,68.4,47.9,64,43.5z"/>
	</g>
</g>
</svg>
