<svg xmlns="http://www.w3.org/2000/svg" width="42" height="41" viewBox="0 0 42 41">
  <path fill="#FFFFFF" fill-rule="evenodd" d="M42.515196,39.7711661 L42.515196,24.3997009 C42.515196,16.1641823 38.091815,12.3319611 32.1914533,12.3319611 C27.4303327,12.3319611 25.2980362,14.9343649 24.1109066,16.7603056 L24.1109066,12.9606457 L15.1431633,12.9606457 C15.2616242,15.4778891 15.1431633,39.7711661 15.1431633,39.7711661 L24.1109066,39.7711661 L24.1109066,24.7979514 C24.1109066,23.9989457 24.1688768,23.1974354 24.4057987,22.6263593 C25.053553,21.0258434 26.5280133,19.3677189 29.0056108,19.3677189 C32.2519439,19.3677189 33.5499731,21.824849 33.5499731,25.4291407 L33.5499731,39.7736709 L42.515196,39.7711661 L42.515196,39.7711661 L42.515196,39.7711661 Z M5.69401502,9.30125014 C8.81936681,9.30125014 10.7676708,7.23986577 10.7676708,4.66751856 C10.7097006,2.0375628 8.81936681,0.0362917083 5.75198525,0.0362917083 C2.68460369,0.0362917083 0.680849919,2.03505808 0.680849919,4.66501384 C0.680849919,7.23986577 2.62663346,9.29874542 5.63856523,9.29874542 L5.69401502,9.29874542 L5.69401502,9.30125014 Z M10.1778867,39.7711661 L10.1778867,12.9606457 L1.21266381,12.9606457 L1.21266381,39.7711661 L10.1778867,39.7711661 L10.1778867,39.7711661 Z" transform="translate(-.539 .33)" opacity=".6"/>
</svg>
