<svg xmlns="http://www.w3.org/2000/svg" width="46" height="38" viewBox="0 0 46 38">
  <path fill="#FFFFFF" fill-rule="evenodd" d="M28.2054126,1.28374636 C24.125145,2.80430029 21.5749778,6.60568513 21.8299945,10.6604956 L21.8299945,12.1810496 L20.2998942,11.9276239 C14.4345096,11.1673469 9.33417514,8.63309038 4.74387414,4.32485423 L2.95875708,2.29744898 L2.19370691,3.81800292 C0.918623302,7.3659621 1.68367347,10.9139213 4.23384069,13.4481778 C5.50892431,14.7153061 5.25390758,14.9687318 2.95875708,14.2084548 C2.19370691,13.9550292 1.42865675,13.7016035 1.42865675,13.9550292 C1.42865675,14.2084548 2.19370691,17.2495627 2.70374036,18.2632653 C3.46879053,19.7838192 5.25390758,21.5577988 7.03902464,22.3180758 L8.56912497,23.0783528 L6.78400792,23.0783528 C4.99889086,23.0783528 4.99889086,23.0783528 4.99889086,23.8386297 C5.76394103,25.866035 8.31410825,28.1468659 11.1192922,29.1605685 L13.159426,29.9208455 L11.3743089,30.9345481 C8.8241417,32.455102 5.76394103,33.215379 2.70374036,33.4688047 C1.17364002,33.4688047 0.153573135,33.7222303 0.153573135,33.7222303 C0.153573135,33.975656 4.23384069,35.7496356 6.5289912,36.5099125 C13.4144427,38.5373178 21.5749778,37.7770408 27.6953792,33.975656 C32.0306634,31.4413994 36.3659477,26.3728863 38.4060815,21.3043732 C39.4261484,18.7701166 40.701232,13.9550292 40.701232,11.4207726 C40.701232,9.90021866 40.701232,9.646793 42.7413658,7.87281341 C43.7614327,6.85911079 44.7814996,5.59198251 45.0365163,5.33855685 C45.291533,4.83170554 45.291533,4.83170554 43.7614327,5.33855685 C40.701232,6.60568513 40.4462153,6.60568513 41.7212989,5.0851312 C42.7413658,4.07142857 44.0164494,2.04402332 44.0164494,1.53717201 C44.0164494,1.53717201 43.5064159,1.53717201 42.9963825,1.79059767 C42.4863491,2.04402332 41.2112654,2.55087464 40.1911986,2.80430029 L38.4060815,3.3111516 L36.8759812,2.29744898 C36.110931,1.79059767 34.8358474,1.0303207 34.0707972,0.776895044 C32.2856802,0.776895044 29.7355129,0.776895044 28.2054126,1.28374636 L28.2054126,1.28374636 Z" transform="translate(0 -.012)" opacity=".6"/>
</svg>
