<svg width="224px" height="366px" viewBox="496 393 224 366" version="1.1" xmlns="http://www.w3.org/2000/svg" xmlns:xlink="http://www.w3.org/1999/xlink">
    <defs>
        <polygon id="path-1" points="155.020804 0 6.85196081e-15 0 0 196.685674 155.020804 196.685674 155.020804 0"></polygon>
        <polygon id="path-3" points="50.07791 150.148341 50.07791 0.0536759262 0.280127914 0.0536759262 0.280127914 150.148341 50.07791 150.148341"></polygon>
    </defs>
    <g id="logo+house+internet-icons" stroke="none" stroke-width="1" fill="none" fill-rule="evenodd" transform="translate(496.000000, 393.000000)">
        <g id="logo+house">
            <g id="house" fill-opacity="0.2" fill="#FFFFFF">
                <polygon id="Shape" points="111.960851 0 0 82.5486168 0 263.118489 223.921702 263.118489 223.784741 82.4683264"></polygon>
            </g>
            <g id="logo" transform="translate(19.102197, 48.233047)">
                <path d="M96.005449,195.111351 C44.9183404,195.111351 1.75726227,150.644763 1.75726227,98.0138428 C1.75726227,45.3804309 44.9183404,0.916334481 96.005449,0.916334481 C116.413003,0.916334481 135.968346,7.78762814 152.560106,20.7902683 L153.709153,21.6921568 L141.153421,33.6558812 L140.363451,33.062927 C126.93157,22.9727387 112.422458,18.0646718 96.005449,18.0646718 C52.7534047,18.0646718 18.8732749,53.1386646 18.8732749,97.9116952 C18.8732749,142.854141 52.3656013,178.057687 95.1197253,178.057687 C108.881957,178.057687 121.71777,174.534841 133.268086,167.588805 L134.046086,167.122913 L134.694819,167.765695 C137.938483,170.992064 145.596403,178.214646 145.673006,178.286896 L146.848385,179.39308 L145.500649,180.267563 C130.49601,189.976566 113.382391,195.111351 96.005449,195.111351" id="Fill-1" fill="#FFFFFF"></path>
                <g id="Group-5" transform="translate(0.000000, 0.281446)">
                    <mask id="mask-2" fill="white">
                        <use xlink:href="#path-1"></use>
                    </mask>
                    <g id="Clip-4"></g>
                    <path d="M95.4451107,0 C70.2642243,0 46.3927728,10.2820264 28.2282548,28.9551033 C10.0254351,47.6655512 0,72.3080333 0,98.3457019 C0,124.353474 10.0565551,148.998447 28.319221,167.733809 C46.5148591,186.404395 70.3527967,196.686421 95.4451107,196.686421 C113.047074,196.686421 130.378533,191.489351 145.572286,181.655778 L148.267759,179.911794 L145.914607,177.691953 C145.840397,177.619702 138.192053,170.409578 134.962752,167.195666 L133.665287,165.905118 L132.109286,166.839395 C120.740902,173.675809 108.108566,177.143844 94.559387,177.143844 C52.4755404,177.143844 19.5098606,142.483424 19.5098606,98.2435543 C19.5098606,54.168117 52.8657376,19.6422332 95.4451107,19.6422332 C111.60119,19.6422332 125.882887,24.4705752 139.104109,34.403805 L140.684049,35.5897135 L142.120358,34.2194411 L152.897461,23.952363 L155.020804,21.9293426 L152.720316,20.1255657 C135.917898,6.95849282 116.113594,0 95.4451107,0 M95.4451107,2.49140452 C116.194985,2.49140452 135.604304,9.83108223 151.27922,22.1161979 L140.50451,32.3832759 C127.350316,22.4998742 112.618576,17.1508287 95.4451107,17.1508287 C51.6089675,17.1508287 17.1160127,53.0993045 17.1160127,98.2435543 C17.1160127,143.377839 50.7232437,179.635249 94.559387,179.635249 C108.778844,179.635249 121.631413,176.017729 133.306209,168.996951 C136.59775,172.270657 144.308335,179.538084 144.308335,179.538084 C130.002699,188.798634 113.217038,194.195017 95.4451107,194.195017 C44.9923718,194.195017 2.39384793,150.854544 2.39384793,98.3457019 C2.39384793,45.8318775 44.7553808,2.49140452 95.4451107,2.49140452" id="Fill-3" fill="#FFFFFF" mask="url(#mask-2)"></path>
                </g>
                <path d="M57.9896549,98.6099446 C57.9896549,86.6586771 67.7278282,76.9720964 79.7377633,76.9720964 C91.7500922,76.9720964 101.485872,86.6586771 101.485872,98.6099446 C101.485872,110.558721 91.7500922,120.250284 79.7377633,120.250284 C67.7278282,120.250284 57.9896549,110.558721 57.9896549,98.6099446" id="Fill-6" fill="#960F7C"></path>
                <path d="M125.637241,54.9800688 L109.258533,70.5438729 C113.61773,75.13304 119.693316,84.2391235 119.693316,98.5049058 C119.693316,115.84259 109.361469,126.759924 103.678474,132.086547 L119.98776,147.697688 C126.08489,143.803623 142.293635,126.134582 142.293635,98.5721737 C142.293635,76.5257351 132.170052,62.0382178 125.637241,54.9800688" id="Fill-8" fill="#960F7C"></path>
                <g id="Group-12" transform="translate(136.233618, 25.657365)">
                    <mask id="mask-4" fill="white">
                        <use xlink:href="#path-3"></use>
                    </mask>
                    <g id="Clip-11"></g>
                    <path d="M20.9246724,0.0536759262 L5.80273508,14.4191144 C13.8867595,23.6223627 27.4766342,42.5545456 27.4766342,73.3557796 C27.4766342,111.379595 2.13057236,134.347854 0.280127914,135.957301 L15.1626805,150.148341 C18.3010151,147.729187 50.0793463,122.134989 50.0793463,73.3557796 C50.0793463,36.3883194 31.352274,11.2101854 20.9246724,0.0536759262" id="Fill-10" fill="#960F7C" mask="url(#mask-4)"></path>
                </g>
            </g>
        </g>
        <path d="M112.225406,263.610315 L112.225406,318.051576" id="Line" stroke="#B0097F" stroke-width="4" stroke-linecap="round" stroke-dasharray="1,11"></path>
        <g id="internet-icon" opacity="0.8" transform="translate(79.751671, 296.561605)" fill="#FFFFFF">
            <path d="M41.7568353,35.0222505 C41.9786901,35.2434078 42.4223996,35.464565 42.8661092,35.464565 C43.3098187,35.464565 43.7535283,35.2434078 43.975383,35.0222505 C50.4091714,28.6086893 50.4091714,18.214297 43.975383,11.8007357 C43.3098187,11.1372639 42.2005449,11.1372639 41.5349806,11.8007357 C40.8694162,12.4642076 40.8694162,13.569994 41.5349806,14.2334659 C46.6376403,19.3200834 46.6376403,27.5029029 41.5349806,32.5895204 C41.3131258,33.2529922 41.3131258,34.3587786 41.7568353,35.0222505 L41.7568353,35.0222505 Z" id="Shape"></path>
            <path d="M21.1243416,35.0222505 C21.3461964,35.2434078 21.7899059,35.464565 22.2336154,35.464565 C22.677325,35.464565 23.1210345,35.2434078 23.3428893,35.0222505 C24.0084536,34.3587786 24.0084536,33.2529922 23.3428893,32.5895204 C18.2402296,27.5029029 18.2402296,19.3200834 23.3428893,14.2334659 C24.0084536,13.569994 24.0084536,12.4642076 23.3428893,11.8007357 C22.677325,11.1372639 21.5680511,11.1372639 20.9024868,11.8007357 C14.6905532,18.214297 14.6905532,28.6086893 21.1243416,35.0222505 L21.1243416,35.0222505 Z" id="Shape"></path>
            <path d="M50.1873166,6.05064637 C49.5217523,5.38717452 48.4124785,5.38717452 47.7469142,6.05064637 C47.0813498,6.71411822 47.0813498,7.81990464 47.7469142,8.48337649 C56.1773955,16.8873533 56.1773955,30.3779475 47.7469142,38.560767 C47.0813498,39.2242389 47.0813498,40.3300253 47.7469142,40.9934971 C47.9687689,41.2146544 48.4124785,41.4358117 48.856188,41.4358117 C49.2998976,41.4358117 49.7436071,41.2146544 49.9654619,40.9934971 C59.7270718,31.2625767 59.7270718,15.5604096 50.1873166,6.05064637 L50.1873166,6.05064637 Z" id="Shape"></path>
            <path d="M17.5746652,8.48337649 C18.2402296,7.81990464 18.2402296,6.71411822 17.5746652,6.05064637 C16.9091009,5.38717452 15.7998271,5.38717452 15.1342628,6.05064637 C5.59450759,15.5604096 5.59450759,31.2625767 15.1342628,40.9934971 C15.3561175,41.2146544 15.7998271,41.4358117 16.2435366,41.4358117 C16.6872462,41.4358117 17.1309557,41.2146544 17.3528105,40.9934971 C18.0183748,40.3300253 18.0183748,39.2242389 17.3528105,38.560767 C9.14418393,30.1567902 9.14418393,16.666196 17.5746652,8.48337649 L17.5746652,8.48337649 Z" id="Shape"></path>
            <path d="M55.7336859,0.521714292 C55.0681216,-0.141757558 53.9588478,-0.141757558 53.2932834,0.521714292 C52.6277191,1.18518614 52.6277191,2.29097256 53.2932834,2.95444441 C58.8396527,8.48337649 61.7237648,15.7815668 61.7237648,23.5220718 C61.7237648,31.2625767 58.617798,38.560767 53.2932834,44.0896991 C52.6277191,44.7531709 52.6277191,45.8589574 53.2932834,46.5224292 C53.5151382,46.7435865 53.9588478,46.9647438 54.4025573,46.9647438 C54.8462669,46.9647438 55.2899764,46.7435865 55.5118312,46.5224292 C61.7237648,40.3300253 65.0515863,32.3683631 65.0515863,23.5220718 C65.2734411,14.8969377 61.7237648,6.71411822 55.7336859,0.521714292 L55.7336859,0.521714292 Z" id="Shape"></path>
            <path d="M3.59781464,23.5220718 C3.59781464,15.7815668 6.70378144,8.48337649 12.028296,2.95444441 C12.6938603,2.29097256 12.6938603,1.18518614 12.028296,0.521714292 C11.3627316,-0.141757558 10.2534578,-0.141757558 9.58789347,0.521714292 C3.59781464,6.71411822 0.0481382995,14.8969377 0.0481382995,23.5220718 C0.0481382995,32.1472058 3.37595987,40.3300253 9.58789347,46.5224292 C9.80974824,46.7435865 10.2534578,46.9647438 10.6971673,46.9647438 C11.1408769,46.9647438 11.5845864,46.7435865 11.8064412,46.5224292 C12.4720055,45.8589574 12.4720055,44.7531709 11.8064412,44.0896991 C6.48192667,38.560767 3.59781464,31.2625767 3.59781464,23.5220718 L3.59781464,23.5220718 Z" id="Shape"></path>
            <path d="M34.8793374,31.2625767 C38.207159,30.3779475 40.8694162,27.2817456 40.8694162,23.5220718 C40.8694162,19.0989261 37.3197399,15.3392523 32.6607897,15.3392523 C28.0018395,15.3392523 24.4521632,18.8777688 24.4521632,23.5220718 C24.4521632,27.2817456 26.8925656,30.3779475 30.442242,31.2625767 L18.9057939,66.4265847 C18.6839391,66.8688993 18.9057939,67.5323711 19.1276486,67.9746857 C19.3495034,68.4170003 20.0150677,68.6381575 20.4587773,68.6381575 L44.8628021,68.6381575 C45.3065117,68.6381575 45.972076,68.4170003 46.1939308,67.9746857 C46.4157855,67.5323711 46.6376403,66.8688993 46.4157855,66.4265847 L34.8793374,31.2625767 L34.8793374,31.2625767 Z" id="Shape"></path>
        </g>
    </g>
</svg>
