<svg xmlns="http://www.w3.org/2000/svg" width="75" height="76" viewBox="0 0 75 76">
  <defs>
    <filter id="a" width="200%" height="200%" x="-50%" y="-50%" filterUnits="objectBoundingBox">
      <feOffset dy="5" in="SourceAlpha" result="shadowOffsetOuter1"/>
      <feGaussianBlur stdDeviation="2" in="shadowOffsetOuter1" result="shadowBlurOuter1"/>
      <feColorMatrix values="0 0 0 0 0 0 0 0 0 0 0 0 0 0 0 0 0 0 0.5 0" in="shadowBlurOuter1" result="shadowMatrixOuter1"/>
      <feMerge>
        <feMergeNode in="shadowMatrixOuter1"/>
        <feMergeNode in="SourceGraphic"/>
      </feMerge>
    </filter>
  </defs>
  <g fill="none" fill-rule="evenodd" filter="url(#a)" transform="translate(4.142 .365)">
    <ellipse cx="33.251" cy="33.235" fill="#960F7C" rx="33.251" ry="33.235"/>
    <g fill="#FFFFFF" transform="translate(9.404 8.728)">
      <path d="M32.5819614,29.2018857 L32.2550403,29.436035 L32.2550403,29.4446872 L25.2148707,33.958957 C27.0952081,34.8187664 35.1296725,38.3347921 42.7944563,39.3492591 C45.9516262,35.3627716 47.8703931,30.3455944 47.9559122,24.870393 C48.0051669,21.6972095 47.4335963,18.659757 46.354865,15.8710544 C41.0120869,23.1118394 32.6902134,29.1240161 32.5819614,29.2018857"/>
      <path d="M32.4033456,19.4449415 L32.4044281,19.8094141 L32.4044281,19.8213109 L32.4044281,19.8813353 L32.4033456,19.8813353 L32.2821033,27.6839706 C34.2371347,26.2103978 41.3043673,20.6665197 45.7178019,14.3758512 C42.6948644,7.90727245 36.862246,2.99824737 29.7636202,1.24239757 C32.3346055,9.63175813 32.4028043,19.3156997 32.4033456,19.4449415"/>
      <path d="M16.6813645,13.5852592 L17.1008411,13.8167047 L17.1035474,13.8150824 L23.9569823,18.5159147 C23.8963612,16.2019999 23.5158553,7.71962851 21.1673279,0.587536435 C19.9148521,0.365283812 18.628277,0.238205062 17.3151801,0.217656157 C10.603014,0.112748593 4.49381167,2.77545398 0.0722582184,7.14858527 C8.43472619,9.07964152 16.5774426,13.5279385 16.6813645,13.5852592" transform="translate(7.036 .326)"/>
      <path d="M24.1973018 35.0264185L23.8270799 34.8479675 23.8184197 34.8533751 17.0201933 30.1903961C17.2139644 32.5556832 18.0886407 41.2202909 20.917807 48.2577499 21.7995197 48.3702281 22.6963876 48.4367416 23.606787 48.4508014 30.7768591 48.5621981 37.2600721 45.5160934 41.7314215 40.6000384 33.0561052 39.2486776 24.2995999 35.0756277 24.1973018 35.0264185M15.5014176 19.6861207L15.8618968 19.4200665 15.8754283 19.4395339 22.8268313 14.9825847C21.5451274 14.299604 13.7347447 10.2460622 6.00230347 8.64378844 2.34879804 12.7757405.0955324011 18.1801023.00297693035 24.1252248-.0484427757 27.4271093.571299997 30.5835291 1.73663291 33.464161 6.96737016 26.0395175 15.3926243 19.766694 15.5014176 19.6861207"/>
      <path d="M15.5782765,29.6512578 L15.5533785,29.2159455 L15.5945143,29.2137824 L15.5533785,29.1856629 L15.6757033,21.3105657 C13.5431387,22.9755677 6.61338608,28.6313832 2.39859397,34.9501713 C5.62775151,41.5917934 11.841417,46.5321827 19.3243374,48.0030516 C16.1904416,39.6937236 15.5858541,29.7815811 15.5782765,29.6512578"/>
    </g>
  </g>
</svg>
