<svg xmlns="http://www.w3.org/2000/svg" width="75" height="77" viewBox="0 0 75 77">
  <defs>
    <filter id="a" width="200%" height="200%" x="-50%" y="-50%" filterUnits="objectBoundingBox">
      <feOffset dy="5" in="SourceAlpha" result="shadowOffsetOuter1"/>
      <feGaussianBlur stdDeviation="2" in="shadowOffsetOuter1" result="shadowBlurOuter1"/>
      <feColorMatrix values="0 0 0 0 0 0 0 0 0 0 0 0 0 0 0 0 0 0 0.5 0" in="shadowBlurOuter1" result="shadowMatrixOuter1"/>
      <feMerge>
        <feMergeNode in="shadowMatrixOuter1"/>
        <feMergeNode in="SourceGraphic"/>
      </feMerge>
    </filter>
  </defs>
  <g fill="none" fill-rule="evenodd" filter="url(#a)" transform="translate(4.142 .919)">
    <ellipse cx="33.251" cy="33.235" fill="#960F7C" rx="33.251" ry="33.235"/>
    <g fill="#FFFFFF" transform="translate(5.165 17.338)">
      <path d="M27.8874309,26.4841022 C21.9603549,26.4841022 17.1560044,21.6819869 17.1560044,15.7576685 C17.1560044,9.83390753 21.9603549,5.03123477 27.8874309,5.03123477 C33.814507,5.03123477 38.6188575,9.83335005 38.6188575,15.7576685 C38.6188575,21.6819869 33.814507,26.4841022 27.8874309,26.4841022 M55.7715155,15.6539776 C55.7704,15.6305635 55.768169,15.6082644 55.7664958,15.5854078 C55.7653803,15.5737008 55.7648226,15.5619937 55.7637071,15.5508442 C55.7620339,15.5341198 55.7592452,15.5173955 55.7570143,15.5012286 C55.7547833,15.4817169 55.7525524,15.4622052 55.749206,15.4432509 C55.7486482,15.441021 55.7480905,15.4382336 55.7480905,15.4360037 C55.6794888,15.0050732 55.4764723,14.6009017 55.1652548,14.289829 C53.3860723,12.1820048 51.2694586,10.3060914 49.1171498,8.59296155 C44.4817937,4.9013424 39.1804991,1.81291442 33.3287176,0.569738533 C29.9465977,-0.148293099 26.5432837,-0.178954388 23.1433161,0.428696605 C20.0506618,0.981714757 17.0701128,2.13123434 14.28031,3.55614805 C9.91378342,5.78605995 5.92596056,8.86055098 2.45125615,12.3074373 C1.80818486,12.9451921 1.16845999,13.5963264 0.583951125,14.2892715 C-0.194650375,15.2113401 -0.194650375,16.3034394 0.583951125,17.225508 C2.36313364,19.3333322 4.47974731,21.2086881 6.63205618,22.9223754 C11.26797,26.6139946 16.5692646,29.7018651 22.4210461,30.945041 C25.803166,31.6636301 29.2070378,31.6942914 32.6070054,31.0866404 C35.6991019,30.5336222 38.6796509,29.3841026 41.4700114,27.9591889 C45.836538,25.7287196 49.8243609,22.654786 53.2990653,19.2078997 C53.9421366,18.5695874 54.5818614,17.9190106 55.1663703,17.2260655 C55.4775878,16.9144353 55.6806042,16.5108212 55.749206,16.0793333 C55.749206,16.0771034 55.7497637,16.074316 55.7503214,16.0720861 C55.7536679,16.0525743 55.7558988,16.0336201 55.7581298,16.0141084 C55.7603607,15.9979415 55.7631494,15.9812172 55.7648226,15.9644928 C55.7659381,15.9527858 55.7664958,15.9416362 55.7676113,15.9299292 C55.7692845,15.9076301 55.7715155,15.8853309 55.7726309,15.8619169 C55.7743041,15.8273532 55.7754196,15.7927896 55.7754196,15.7576685 C55.7754196,15.7225474 55.7731887,15.6885412 55.7715155,15.6539776"/>
      <path d="M28.1276248,12.2819806 C30.0897452,12.2819806 31.6798547,13.8719078 31.6798547,15.8325578 C31.6798547,17.7937653 30.0897452,19.383135 28.1276248,19.383135 C26.1655044,19.383135 24.5753949,17.7937653 24.5753949,15.8325578 C24.5753949,13.8719078 26.1655044,12.2819806 28.1276248,12.2819806"/>
    </g>
  </g>
</svg>
