<svg xmlns="http://www.w3.org/2000/svg" width="75" height="76" viewBox="0 0 75 76">
  <defs>
    <filter id="a" width="200%" height="200%" x="-50%" y="-50%" filterUnits="objectBoundingBox">
      <feOffset dy="5" in="SourceAlpha" result="shadowOffsetOuter1"/>
      <feGaussianBlur stdDeviation="2" in="shadowOffsetOuter1" result="shadowBlurOuter1"/>
      <feColorMatrix values="0 0 0 0 0 0 0 0 0 0 0 0 0 0 0 0 0 0 0.5 0" in="shadowBlurOuter1" result="shadowMatrixOuter1"/>
      <feMerge>
        <feMergeNode in="shadowMatrixOuter1"/>
        <feMergeNode in="SourceGraphic"/>
      </feMerge>
    </filter>
  </defs>
  <g fill="none" fill-rule="evenodd" filter="url(#a)" transform="translate(4)">
    <ellipse cx="33.43" cy="33.43" fill="#960F7C" rx="33.43" ry="33.43"/>
    <path fill="#FFFFFF" d="M17.8483072,6.98094713 C17.5238042,6.65622724 16.9962788,6.65622724 16.6717758,6.98094713 C16.3472728,7.30566703 16.3472728,7.83354501 16.6717758,8.15826491 L19.1679529,10.6561103 C19.3293723,10.8176376 19.5423794,10.8992339 19.7553865,10.8992339 C19.9683936,10.8992339 20.1814007,10.8176376 20.3444843,10.6561103 C20.6689873,10.3313904 20.6689873,9.80351238 20.3444843,9.47879249 L17.8483072,6.98094713 Z M33.2946509,8.11330369 C32.5075231,7.23739259 31.3809152,6.73615829 30.2027196,6.73615829 L24.6628706,6.73615829 C24.2435129,2.99938164 21.1033221,0.0752373403 17.2592095,0.0752373403 C13.4150968,0.0752373403 10.274906,2.99938164 9.85554828,6.73615829 L4.31569931,6.73615829 C3.13750374,6.73615829 2.01089582,7.23739259 1.22376798,8.11330369 C0.436640149,8.9892148 0.0538929989,10.1632021 0.178701852,11.3355242 L2.80634424,36.3139778 C3.02933606,38.4388115 4.80827825,40.040763 6.9433417,40.040763 L27.5750772,40.040763 C29.7118048,40.040763 31.490747,38.4388115 31.7120747,36.3139778 L34.3397171,11.3355242 C34.4645259,10.1632021 34.0817788,8.9892148 33.2946509,8.11330369 Z M18.0912685,38.3755328 L16.4271504,38.3755328 L16.4271504,14.9773827 C16.703394,15.0090221 16.9746453,15.0623095 17.2592095,15.0623095 C17.5437736,15.0623095 17.8150249,15.0090221 18.0912685,14.9773827 L18.0912685,38.3755328 Z M22.9704626,8.68947336 C22.9438367,8.82768747 22.8939132,8.95591019 22.8573026,9.09079384 C22.7990584,9.30560854 22.7408143,9.52208847 22.6592725,9.72691179 C22.5910437,9.89676528 22.5028454,10.0549622 22.4179754,10.2164895 C22.341426,10.3663602 22.2665407,10.5162309 22.1783424,10.6577755 C22.0618541,10.8409508 21.9287247,11.0124695 21.7939311,11.1806578 C21.7173817,11.2772411 21.6408323,11.3754897 21.5576264,11.4670774 C21.3895504,11.6519179 21.2064975,11.8234367 21.016788,11.984964 C20.9518874,12.0399166 20.8886509,12.0948692 20.8220862,12.1464913 C20.6007585,12.31801 20.367782,12.4745417 20.1214925,12.614421 C20.0782254,12.6393995 20.0332942,12.6627127 19.9883631,12.6876912 C19.7171118,12.8325662 19.4342117,12.9591237 19.1396629,13.0590375 C19.1180293,13.0673636 19.0947317,13.0723593 19.0730981,13.0790203 C18.7569157,13.1822645 18.4307486,13.2638608 18.0929326,13.3121525 C17.8183531,13.352118 17.5454378,13.3970792 17.2608736,13.3970792 C16.9763094,13.3970792 16.703394,13.352118 16.4288146,13.3121525 C16.0909986,13.2638608 15.7648315,13.1822645 15.448649,13.0790203 C15.4270155,13.0723593 15.4037178,13.0656984 15.3820843,13.0590375 C15.0875354,12.9591237 14.8046353,12.830901 14.5333841,12.6876912 C14.4884529,12.6643779 14.4435217,12.6410647 14.4002547,12.614421 C14.1523011,12.4762069 13.9193245,12.31801 13.6979968,12.1464913 C13.6314321,12.0948692 13.5665315,12.0399166 13.503295,11.984964 C13.3119215,11.8234367 13.1305326,11.6519179 12.9607926,11.4670774 C12.8775866,11.3754897 12.8027013,11.2789064 12.7261519,11.182323 C12.5896942,11.0141348 12.4565648,10.8409508 12.3400765,10.6577755 C12.2502141,10.5162309 12.176993,10.364695 12.1004435,10.2164895 C12.0172376,10.0549622 11.9273752,9.89676528 11.8591464,9.72691179 C11.7776046,9.52208847 11.7193605,9.30560854 11.6611164,9.09079384 C11.6245058,8.95591019 11.5745822,8.82768747 11.5479563,8.68947336 C11.4763993,8.32645316 11.4347963,7.95177636 11.4347963,7.56877341 C11.4347963,4.64129865 13.6114627,2.23337573 16.4271504,1.82539432 L16.4271504,2.5730827 C16.4271504,3.03268624 16.7999129,3.40569781 17.2592095,3.40569781 C17.718506,3.40569781 18.0912685,3.03268624 18.0912685,2.5730827 L18.0912685,1.82539432 C20.9069562,2.23337573 23.0836226,4.64129865 23.0836226,7.56877341 C23.0836226,7.95344159 23.0420197,8.32645316 22.9704626,8.68947336 Z" transform="translate(16.17 13.372)"/>
  </g>
</svg>
