<svg width="75" height="76" viewBox="0 0 75 76" xmlns="http://www.w3.org/2000/svg" xmlns:xlink="http://www.w3.org/1999/xlink">
  <defs>
    <filter id="a" width="200%" height="200%" x="-50%" y="-50%" filterUnits="objectBoundingBox">
      <feOffset dy="5" in="SourceAlpha" result="shadowOffsetOuter1"/>
      <feGaussianBlur stdDeviation="2" in="shadowOffsetOuter1" result="shadowBlurOuter1"/>
      <feColorMatrix values="0 0 0 0 0 0 0 0 0 0 0 0 0 0 0 0 0 0 0.5 0" in="shadowBlurOuter1" result="shadowMatrixOuter1"/>
      <feMerge>
        <feMergeNode in="shadowMatrixOuter1"/>
        <feMergeNode in="SourceGraphic"/>
      </feMerge>
    </filter>
  </defs>
  <g fill="none" fill-rule="evenodd" filter="url(#a)" transform="translate(4 .365)">
    <ellipse cx="33.331" cy="33.236" fill="#960F7C" rx="33.331" ry="33.236"/>
    <g fill="#FFFFFF" transform="translate(7.513 8.164)">
      <path d="M25.7563673 11.9298182C24.8940924 11.9298182 24.1957601 11.233458 24.1957601 10.3736183L24.1957601 1.55619993C24.1957601.696884144 24.8940924 0 25.7563673 0 26.6181167 0 27.316449.696884144 27.316449 1.55619993L27.316449 10.3741422C27.316449 11.233458 26.6181167 11.9298182 25.7563673 11.9298182M25.7563673 51.349358C24.8940924 51.349358 24.1957601 50.6529978 24.1957601 49.793158L24.1957601 40.9762637C24.1957601 40.1169479 24.8940924 39.4200637 25.7563673 39.4200637 26.6181167 39.4200637 27.316449 40.1169479 27.316449 40.9762637L27.316449 49.793682C27.316449 50.6529978 26.6181167 51.349358 25.7563673 51.349358M49.9436761 27.229831L41.1007611 27.229831C40.2390117 27.229831 39.540154 26.5339948 39.540154 25.674155 39.540154 24.8148392 40.2390117 24.1179551 41.1007611 24.1179551L49.9436761 24.1179551C50.8054255 24.1179551 51.5042833 24.8148392 51.5042833 25.674155 51.5037578 26.5339948 50.8049001 27.229831 49.9436761 27.229831M10.411448 27.229831L1.56853295 27.229831C.706783555 27.229831.00845126883 26.5339948.00845126883 25.674679.00845126883 24.8153632.706783555 24.1184791 1.56853295 24.1184791L10.411448 24.1184791C11.2731974 24.1184791 11.9720551 24.8153632 11.9720551 25.674679 11.9720551 26.5339948 11.2731974 27.229831 10.411448 27.229831M42.8589401 44.2856774C42.4595928 44.2856774 42.0602455 44.1337252 41.7554805 43.8298209L35.5030682 37.5950656C34.8935382 36.9872569 34.8935382 36.0027116 35.5030682 35.3954268 36.1120729 34.7876181 37.0999319 34.7876181 37.709462 35.3954268L43.9623997 41.6296581C44.5719297 42.2374668 44.5719297 43.2225361 43.9623997 43.8298209 43.6581601 44.1337252 43.2582874 44.2856774 42.8589401 44.2856774M14.9067322 16.4113596C14.5079103 16.4113596 14.1085631 16.2594074 13.803798 15.9555031L7.55086033 9.72074785C6.94133027 9.11346309 6.94133027 8.12839378 7.55086033 7.52058505 8.16039039 6.91277632 9.14824946 6.91277632 9.75777952 7.52058505L16.0107172 13.7553403C16.6202473 14.362625 16.6202473 15.3482183 16.0107172 15.956027 15.7054267 16.2594074 15.3060795 16.4113596 14.9067322 16.4113596M8.65431993 44.2867253C8.25497264 44.2867253 7.85562536 44.1347732 7.55086033 43.8308688 6.94133027 43.223584 6.94133027 42.2385147 7.55086033 41.630706L13.8032726 35.3959508C14.4128026 34.7881421 15.4001363 34.7881421 16.0096663 35.3959508 16.6191964 36.0032356 16.6191964 36.9877809 16.0096663 37.5955896L9.75725406 43.8308688C9.45353995 44.1347732 9.05366721 44.2867253 8.65431993 44.2867253M36.6075788 16.4129315C36.2082315 16.4129315 35.8083587 16.2609793 35.5041192 15.957075 34.8945891 15.3497902 34.8945891 14.363673 35.5041192 13.7563882L41.7565314 7.52110902C42.3660615 6.91277632 43.3539205 6.91277632 43.9629251 7.52110902 44.5724552 8.12839378 44.5724552 9.11398706 43.9629251 9.72127182L37.7105129 15.956551C37.4057479 16.2609793 37.006926 16.4129315 36.6075788 16.4129315M25.7563673 18.6424368C21.8674604 18.6424368 18.7036841 21.7967545 18.7036841 25.674679 18.7036841 29.5520795 21.8674604 32.7074451 25.7563673 32.7074451 29.6452742 32.7074451 32.808525 29.5526035 32.808525 25.674679 32.808525 21.7967545 29.6452742 18.6424368 25.7563673 18.6424368M25.7563673 35.819845C20.1471143 35.819845 15.5829953 31.2686152 15.5829953 25.674679 15.5829953 20.0812668 20.1471143 15.5300369 25.7563673 15.5300369 31.3661457 15.5300369 35.9297393 20.0812668 35.9297393 25.674679 35.9297393 31.2686152 31.3661457 35.819845 25.7563673 35.819845"/>
    </g>
  </g>
</svg>
