<svg xmlns="http://www.w3.org/2000/svg" width="215" height="215" viewBox="0 0 215 215">
  <g fill="none" fill-rule="evenodd">
    <ellipse cx="107.5" cy="107.5" fill="#B0097F" rx="107.5" ry="107.5"/>
    <path fill="#FFFFFF" d="M57.3943467,22.4484538 C56.3508507,21.4042603 54.6545006,21.4042603 53.6110045,22.4484538 C52.5675084,23.4926473 52.5675084,25.1901311 53.6110045,26.2343246 L61.6378975,34.2665822 C62.1569699,34.7860015 62.8419314,35.0483886 63.526893,35.0483886 C64.2118545,35.0483886 64.896816,34.7860015 65.4212397,34.2665822 C66.4647358,33.2223887 66.4647358,31.5249049 65.4212397,30.4807114 L57.3943467,22.4484538 Z M107.06476,26.0897439 C104.533614,23.2730989 100.910809,21.6612925 97.1221157,21.6612925 L79.3077646,21.6612925 C77.9592465,9.64503509 67.8614152,0.241938798 55.5,0.241938798 C43.1385848,0.241938798 33.0407535,9.64503509 31.6922354,21.6612925 L13.8778843,21.6612925 C10.0891908,21.6612925 6.46638644,23.2730989 3.93523952,26.0897439 C1.4040926,28.9063889 0.173302343,32.68155 0.574646992,36.4513563 L9.02428967,116.773933 C9.74135877,123.606707 15.4618578,128.758061 22.327527,128.758061 L88.672473,128.758061 C95.5434934,128.758061 101.263992,123.606707 101.97571,116.773933 L110.425353,36.4513563 C110.826698,32.68155 109.595907,28.9063889 107.06476,26.0897439 Z M58.175631,123.403223 L52.824369,123.403223 L52.824369,48.1623879 C53.7126785,48.2641299 54.5849342,48.4354847 55.5,48.4354847 C56.4150658,48.4354847 57.2873215,48.2641299 58.175631,48.1623879 L58.175631,123.403223 Z M73.8655311,27.942518 C73.7799109,28.3869696 73.6193731,28.7992922 73.5016453,29.2330341 C73.3143511,29.9238082 73.127057,30.6199372 72.8648451,31.2785824 C72.6454434,31.8247759 72.3618265,32.3334855 72.0889122,32.8529049 C71.8427541,33.3348403 71.6019473,33.8167758 71.3183304,34.271937 C70.9437421,34.8609693 70.5156411,35.4125176 70.0821889,35.9533563 C69.8360309,36.2639369 69.5898728,36.5798724 69.3223097,36.8743885 C68.7818322,37.4687756 68.1931934,38.0203239 67.5831496,38.5397433 C67.3744503,38.7164529 67.1711024,38.8931626 66.9570519,39.0591626 C66.2453341,39.610711 65.4961574,40.1140658 64.7041706,40.5638722 C64.5650378,40.6441948 64.4205537,40.7191625 64.2760697,40.7994851 C63.403814,41.265356 62.4940994,41.6723238 61.546926,41.9936141 C61.4773596,42.0203883 61.402442,42.0364528 61.3328756,42.0578721 C60.3161358,42.3898721 59.2672884,42.6522592 58.1809823,42.8075495 C57.298024,42.9360656 56.4204171,43.0806463 55.5053513,43.0806463 C54.5902855,43.0806463 53.7126785,42.9360656 52.8297203,42.8075495 C51.7434141,42.6522592 50.6945667,42.3898721 49.677827,42.0578721 C49.6082606,42.0364528 49.5333429,42.0150334 49.4637765,41.9936141 C48.5166031,41.6723238 47.6068886,41.2600012 46.7346329,40.7994851 C46.5901488,40.7245174 46.4456647,40.6495496 46.3065319,40.5638722 C45.5091939,40.1194206 44.7600172,39.610711 44.0482994,39.0591626 C43.8342489,38.8931626 43.6255497,38.7164529 43.4222017,38.5397433 C42.8068066,38.0203239 42.223519,37.4687756 41.6776903,36.8743885 C41.4101272,36.5798724 41.1693204,36.2692918 40.9231624,35.9587111 C40.4843589,35.4178725 40.0562579,34.8609693 39.6816696,34.271937 C39.3927014,33.8167758 39.1572459,33.3294855 38.9110878,32.8529049 C38.6435247,32.3334855 38.3545566,31.8247759 38.1351549,31.2785824 C37.872943,30.6199372 37.6856489,29.9238082 37.4983547,29.2330341 C37.3806269,28.7992922 37.2200891,28.3869696 37.1344689,27.942518 C36.9043646,26.7751632 36.7705831,25.5703246 36.7705831,24.3387117 C36.7705831,14.9249058 43.7700337,7.18180941 52.824369,5.86987399 L52.824369,8.27419645 C52.824369,9.75213186 54.0230517,10.9516157 55.5,10.9516157 C56.9769483,10.9516157 58.175631,9.75213186 58.175631,8.27419645 L58.175631,5.86987399 C67.2299663,7.18180941 74.2294169,14.9249058 74.2294169,24.3387117 C74.2294169,25.5756794 74.0956354,26.7751632 73.8655311,27.942518 Z" transform="translate(52 43)"/>
  </g>
</svg>
