<svg width="501px" height="213px" viewBox="279 477 501 213" version="1.1" xmlns="http://www.w3.org/2000/svg" xmlns:xlink="http://www.w3.org/1999/xlink">
    <g id="volet-icon" stroke="none" stroke-width="1" fill="none" fill-rule="evenodd" transform="translate(712.000000, 622.000000)">
        <g id="Group" transform="translate(0.142000, 0.365000)">
            <ellipse id="Oval" fill="#960F7C" cx="33.251" cy="33.235" rx="33.251" ry="33.235"></ellipse>
            <g transform="translate(9.404000, 8.728000)" id="Shape" fill="#FFFFFF">
                <path d="M32.5819614,29.2018857 L32.2550403,29.436035 L32.2550403,29.4446872 L25.2148707,33.958957 C27.0952081,34.8187664 35.1296725,38.3347921 42.7944563,39.3492591 C45.9516262,35.3627716 47.8703931,30.3455944 47.9559122,24.870393 C48.0051669,21.6972095 47.4335963,18.659757 46.354865,15.8710544 C41.0120869,23.1118394 32.6902134,29.1240161 32.5819614,29.2018857"></path>
                <path d="M32.4033456,19.4449415 L32.4044281,19.8094141 L32.4044281,19.8213109 L32.4044281,19.8813353 L32.4033456,19.8813353 L32.2821033,27.6839706 C34.2371347,26.2103978 41.3043673,20.6665197 45.7178019,14.3758512 C42.6948644,7.90727245 36.862246,2.99824737 29.7636202,1.24239757 C32.3346055,9.63175813 32.4028043,19.3156997 32.4033456,19.4449415"></path>
                <path d="M23.7173645,13.9112592 L24.1368411,14.1427047 L24.1395474,14.1410824 L30.9929823,18.8419147 C30.9323612,16.5279999 30.5518553,8.04562851 28.2033279,0.913536435 C26.9508521,0.691283812 25.664277,0.564205062 24.3511801,0.543656157 C17.639014,0.438748593 11.5298117,3.10145398 7.10825822,7.47458527 C15.4707262,9.40564152 23.6134426,13.8539385 23.7173645,13.9112592"></path>
                <path d="M24.1973018,35.0264185 L23.8270799,34.8479675 L23.8184197,34.8533751 L17.0201933,30.1903961 C17.2139644,32.5556832 18.0886407,41.2202909 20.917807,48.2577499 C21.7995197,48.3702281 22.6963876,48.4367416 23.606787,48.4508014 C30.7768591,48.5621981 37.2600721,45.5160934 41.7314215,40.6000384 C33.0561052,39.2486776 24.2995999,35.0756277 24.1973018,35.0264185 M15.5014176,19.6861207 L15.8618968,19.4200665 L15.8754283,19.4395339 L22.8268313,14.9825847 C21.5451274,14.299604 13.7347447,10.2460622 6.00230347,8.64378844 C2.34879804,12.7757405 0.0955324011,18.1801023 0.00297693035,24.1252248 C-0.0484427757,27.4271093 0.571299997,30.5835291 1.73663291,33.464161 C6.96737016,26.0395175 15.3926243,19.766694 15.5014176,19.6861207"></path>
                <path d="M15.5782765,29.6512578 L15.5533785,29.2159455 L15.5945143,29.2137824 L15.5533785,29.1856629 L15.6757033,21.3105657 C13.5431387,22.9755677 6.61338608,28.6313832 2.39859397,34.9501713 C5.62775151,41.5917934 11.841417,46.5321827 19.3243374,48.0030516 C16.1904416,39.6937236 15.5858541,29.7815811 15.5782765,29.6512578"></path>
            </g>
        </g>
    </g>
    <g id="eye-icon" stroke="none" stroke-width="1" fill="none" fill-rule="evenodd" transform="translate(712.000000, 482.000000)">
        <g id="Group" transform="translate(0.142000, 0.919000)">
            <ellipse id="Oval" fill="#960F7C" cx="33.251" cy="33.235" rx="33.251" ry="33.235"></ellipse>
            <g transform="translate(5.165000, 17.338000)" id="Shape" fill="#FFFFFF">
                <path d="M27.8874309,26.4841022 C21.9603549,26.4841022 17.1560044,21.6819869 17.1560044,15.7576685 C17.1560044,9.83390753 21.9603549,5.03123477 27.8874309,5.03123477 C33.814507,5.03123477 38.6188575,9.83335005 38.6188575,15.7576685 C38.6188575,21.6819869 33.814507,26.4841022 27.8874309,26.4841022 M55.7715155,15.6539776 C55.7704,15.6305635 55.768169,15.6082644 55.7664958,15.5854078 C55.7653803,15.5737008 55.7648226,15.5619937 55.7637071,15.5508442 C55.7620339,15.5341198 55.7592452,15.5173955 55.7570143,15.5012286 C55.7547833,15.4817169 55.7525524,15.4622052 55.749206,15.4432509 C55.7486482,15.441021 55.7480905,15.4382336 55.7480905,15.4360037 C55.6794888,15.0050732 55.4764723,14.6009017 55.1652548,14.289829 C53.3860723,12.1820048 51.2694586,10.3060914 49.1171498,8.59296155 C44.4817937,4.9013424 39.1804991,1.81291442 33.3287176,0.569738533 C29.9465977,-0.148293099 26.5432837,-0.178954388 23.1433161,0.428696605 C20.0506618,0.981714757 17.0701128,2.13123434 14.28031,3.55614805 C9.91378342,5.78605995 5.92596056,8.86055098 2.45125615,12.3074373 C1.80818486,12.9451921 1.16845999,13.5963264 0.583951125,14.2892715 C-0.194650375,15.2113401 -0.194650375,16.3034394 0.583951125,17.225508 C2.36313364,19.3333322 4.47974731,21.2086881 6.63205618,22.9223754 C11.26797,26.6139946 16.5692646,29.7018651 22.4210461,30.945041 C25.803166,31.6636301 29.2070378,31.6942914 32.6070054,31.0866404 C35.6991019,30.5336222 38.6796509,29.3841026 41.4700114,27.9591889 C45.836538,25.7287196 49.8243609,22.654786 53.2990653,19.2078997 C53.9421366,18.5695874 54.5818614,17.9190106 55.1663703,17.2260655 C55.4775878,16.9144353 55.6806042,16.5108212 55.749206,16.0793333 C55.749206,16.0771034 55.7497637,16.074316 55.7503214,16.0720861 C55.7536679,16.0525743 55.7558988,16.0336201 55.7581298,16.0141084 C55.7603607,15.9979415 55.7631494,15.9812172 55.7648226,15.9644928 C55.7659381,15.9527858 55.7664958,15.9416362 55.7676113,15.9299292 C55.7692845,15.9076301 55.7715155,15.8853309 55.7726309,15.8619169 C55.7743041,15.8273532 55.7754196,15.7927896 55.7754196,15.7576685 C55.7754196,15.7225474 55.7731887,15.6885412 55.7715155,15.6539776"></path>
                <path d="M28.1276248,12.2819806 C30.0897452,12.2819806 31.6798547,13.8719078 31.6798547,15.8325578 C31.6798547,17.7937653 30.0897452,19.383135 28.1276248,19.383135 C26.1655044,19.383135 24.5753949,17.7937653 24.5753949,15.8325578 C24.5753949,13.8719078 26.1655044,12.2819806 28.1276248,12.2819806"></path>
            </g>
        </g>
    </g>
    <g id="light-icon" stroke="none" stroke-width="1" fill="none" fill-rule="evenodd" transform="translate(279.000000, 477.000000)">
        <g id="Group" transform="translate(0.000000, 0.365000)">
            <ellipse id="Oval" fill="#960F7C" cx="33.331" cy="178.236" rx="33.331" ry="33.236"></ellipse>
            <g id="heater-icon" transform="translate(0.000000, 4.635000)">
                <g id="Group" transform="translate(0.478000, 0.919000)">
                    <ellipse id="Oval" fill="#960F7C" cx="33.413" cy="33.423" rx="33.413" ry="33.423"></ellipse>
                    <g transform="translate(15.417000, 2.911000)" id="Shape" fill="#FFFFFF">
                        <g transform="translate(0.780000, 0.312000)">
                            <path d="M2.99274433,8.39660094 C14.8008393,30.3132044 2.3398045,34.3464522 6.49080051,51.6691398 C7.06672103,54.0726591 5.0234102,53.9761507 4.27218453,52.7198178 C-6.55650071,34.6221906 7.23340461,27.0296201 2.30589301,8.92395054 C1.88918405,7.39417714 2.2110558,6.94552786 2.99274433,8.39660094 M15.9894657,0.905134569 C27.7987102,22.821738 15.3371006,26.8555603 19.4880967,44.1776734 C20.0634424,46.5806183 18.0201316,46.4852587 17.2683311,45.227777 C6.44022066,27.1307242 20.230126,19.5387282 15.3026144,1.43190971 C14.8864802,-0.0967147794 15.2083519,-0.545938513 15.9894657,0.905134569 M28.3209946,8.01229256 C40.1296643,29.928896 27.6680547,33.9627183 31.8196255,51.2854058 C32.3943965,53.6883507 30.3510857,53.5924167 29.59986,52.3355094 C18.7717495,34.2384566 32.5610801,26.6458862 27.6341432,8.54021661 C27.2174343,7.00986875 27.5387313,6.56179393 28.3209946,8.01229256"></path>
                        </g>
                    </g>
                </g>
            </g>
            <g transform="translate(6.513000, 152.164000)" id="Shape" fill="#FFFFFF">
                <path d="M25.7563673,11.9298182 C24.8940924,11.9298182 24.1957601,11.233458 24.1957601,10.3736183 L24.1957601,1.55619993 C24.1957601,0.696884144 24.8940924,0 25.7563673,0 C26.6181167,0 27.316449,0.696884144 27.316449,1.55619993 L27.316449,10.3741422 C27.316449,11.233458 26.6181167,11.9298182 25.7563673,11.9298182 M25.7563673,51.349358 C24.8940924,51.349358 24.1957601,50.6529978 24.1957601,49.793158 L24.1957601,40.9762637 C24.1957601,40.1169479 24.8940924,39.4200637 25.7563673,39.4200637 C26.6181167,39.4200637 27.316449,40.1169479 27.316449,40.9762637 L27.316449,49.793682 C27.316449,50.6529978 26.6181167,51.349358 25.7563673,51.349358 M49.9436761,27.229831 L41.1007611,27.229831 C40.2390117,27.229831 39.540154,26.5339948 39.540154,25.674155 C39.540154,24.8148392 40.2390117,24.1179551 41.1007611,24.1179551 L49.9436761,24.1179551 C50.8054255,24.1179551 51.5042833,24.8148392 51.5042833,25.674155 C51.5037578,26.5339948 50.8049001,27.229831 49.9436761,27.229831 M10.411448,27.229831 L1.56853295,27.229831 C0.706783555,27.229831 0.00845126883,26.5339948 0.00845126883,25.674679 C0.00845126883,24.8153632 0.706783555,24.1184791 1.56853295,24.1184791 L10.411448,24.1184791 C11.2731974,24.1184791 11.9720551,24.8153632 11.9720551,25.674679 C11.9720551,26.5339948 11.2731974,27.229831 10.411448,27.229831 M42.8589401,44.2856774 C42.4595928,44.2856774 42.0602455,44.1337252 41.7554805,43.8298209 L35.5030682,37.5950656 C34.8935382,36.9872569 34.8935382,36.0027116 35.5030682,35.3954268 C36.1120729,34.7876181 37.0999319,34.7876181 37.709462,35.3954268 L43.9623997,41.6296581 C44.5719297,42.2374668 44.5719297,43.2225361 43.9623997,43.8298209 C43.6581601,44.1337252 43.2582874,44.2856774 42.8589401,44.2856774 M14.9067322,16.4113596 C14.5079103,16.4113596 14.1085631,16.2594074 13.803798,15.9555031 L7.55086033,9.72074785 C6.94133027,9.11346309 6.94133027,8.12839378 7.55086033,7.52058505 C8.16039039,6.91277632 9.14824946,6.91277632 9.75777952,7.52058505 L16.0107172,13.7553403 C16.6202473,14.362625 16.6202473,15.3482183 16.0107172,15.956027 C15.7054267,16.2594074 15.3060795,16.4113596 14.9067322,16.4113596 M8.65431993,44.2867253 C8.25497264,44.2867253 7.85562536,44.1347732 7.55086033,43.8308688 C6.94133027,43.223584 6.94133027,42.2385147 7.55086033,41.630706 L13.8032726,35.3959508 C14.4128026,34.7881421 15.4001363,34.7881421 16.0096663,35.3959508 C16.6191964,36.0032356 16.6191964,36.9877809 16.0096663,37.5955896 L9.75725406,43.8308688 C9.45353995,44.1347732 9.05366721,44.2867253 8.65431993,44.2867253 M36.6075788,16.4129315 C36.2082315,16.4129315 35.8083587,16.2609793 35.5041192,15.957075 C34.8945891,15.3497902 34.8945891,14.363673 35.5041192,13.7563882 L41.7565314,7.52110902 C42.3660615,6.91277632 43.3539205,6.91277632 43.9629251,7.52110902 C44.5724552,8.12839378 44.5724552,9.11398706 43.9629251,9.72127182 L37.7105129,15.956551 C37.4057479,16.2609793 37.006926,16.4129315 36.6075788,16.4129315 M25.7563673,18.6424368 C21.8674604,18.6424368 18.7036841,21.7967545 18.7036841,25.674679 C18.7036841,29.5520795 21.8674604,32.7074451 25.7563673,32.7074451 C29.6452742,32.7074451 32.808525,29.5526035 32.808525,25.674679 C32.808525,21.7967545 29.6452742,18.6424368 25.7563673,18.6424368 M25.7563673,35.819845 C20.1471143,35.819845 15.5829953,31.2686152 15.5829953,25.674679 C15.5829953,20.0812668 20.1471143,15.5300369 25.7563673,15.5300369 C31.3661457,15.5300369 35.9297393,20.0812668 35.9297393,25.674679 C35.9297393,31.2686152 31.3661457,35.819845 25.7563673,35.819845"></path>
            </g>
        </g>
    </g>
</svg>
