<svg width="66" height="70" viewBox="0 0 66 70" xmlns="http://www.w3.org/2000/svg" xmlns:xlink="http://www.w3.org/1999/xlink">
  <g fill="#FFFFFF" fill-rule="evenodd" transform="translate(.198 .562)" opacity=".8">
    <path d="M41.7568353 35.0222505C41.9786901 35.2434078 42.4223996 35.464565 42.8661092 35.464565 43.3098187 35.464565 43.7535283 35.2434078 43.975383 35.0222505 50.4091714 28.6086893 50.4091714 18.214297 43.975383 11.8007357 43.3098187 11.1372639 42.2005449 11.1372639 41.5349806 11.8007357 40.8694162 12.4642076 40.8694162 13.569994 41.5349806 14.2334659 46.6376403 19.3200834 46.6376403 27.5029029 41.5349806 32.5895204 41.3131258 33.2529922 41.3131258 34.3587786 41.7568353 35.0222505L41.7568353 35.0222505zM21.1243416 35.0222505C21.3461964 35.2434078 21.7899059 35.464565 22.2336154 35.464565 22.677325 35.464565 23.1210345 35.2434078 23.3428893 35.0222505 24.0084536 34.3587786 24.0084536 33.2529922 23.3428893 32.5895204 18.2402296 27.5029029 18.2402296 19.3200834 23.3428893 14.2334659 24.0084536 13.569994 24.0084536 12.4642076 23.3428893 11.8007357 22.677325 11.1372639 21.5680511 11.1372639 20.9024868 11.8007357 14.6905532 18.214297 14.6905532 28.6086893 21.1243416 35.0222505L21.1243416 35.0222505z"/>
    <path d="M50.1873166 6.05064637C49.5217523 5.38717452 48.4124785 5.38717452 47.7469142 6.05064637 47.0813498 6.71411822 47.0813498 7.81990464 47.7469142 8.48337649 56.1773955 16.8873533 56.1773955 30.3779475 47.7469142 38.560767 47.0813498 39.2242389 47.0813498 40.3300253 47.7469142 40.9934971 47.9687689 41.2146544 48.4124785 41.4358117 48.856188 41.4358117 49.2998976 41.4358117 49.7436071 41.2146544 49.9654619 40.9934971 59.7270718 31.2625767 59.7270718 15.5604096 50.1873166 6.05064637L50.1873166 6.05064637zM17.5746652 8.48337649C18.2402296 7.81990464 18.2402296 6.71411822 17.5746652 6.05064637 16.9091009 5.38717452 15.7998271 5.38717452 15.1342628 6.05064637 5.59450759 15.5604096 5.59450759 31.2625767 15.1342628 40.9934971 15.3561175 41.2146544 15.7998271 41.4358117 16.2435366 41.4358117 16.6872462 41.4358117 17.1309557 41.2146544 17.3528105 40.9934971 18.0183748 40.3300253 18.0183748 39.2242389 17.3528105 38.560767 9.14418393 30.1567902 9.14418393 16.666196 17.5746652 8.48337649L17.5746652 8.48337649z"/>
    <path d="M55.7336859.521714292C55.0681216-.141757558 53.9588478-.141757558 53.2932834.521714292 52.6277191 1.18518614 52.6277191 2.29097256 53.2932834 2.95444441 58.8396527 8.48337649 61.7237648 15.7815668 61.7237648 23.5220718 61.7237648 31.2625767 58.617798 38.560767 53.2932834 44.0896991 52.6277191 44.7531709 52.6277191 45.8589574 53.2932834 46.5224292 53.5151382 46.7435865 53.9588478 46.9647438 54.4025573 46.9647438 54.8462669 46.9647438 55.2899764 46.7435865 55.5118312 46.5224292 61.7237648 40.3300253 65.0515863 32.3683631 65.0515863 23.5220718 65.2734411 14.8969377 61.7237648 6.71411822 55.7336859.521714292L55.7336859.521714292zM3.59781464 23.5220718C3.59781464 15.7815668 6.70378144 8.48337649 12.028296 2.95444441 12.6938603 2.29097256 12.6938603 1.18518614 12.028296.521714292 11.3627316-.141757558 10.2534578-.141757558 9.58789347.521714292 3.59781464 6.71411822.0481382995 14.8969377.0481382995 23.5220718.0481382995 32.1472058 3.37595987 40.3300253 9.58789347 46.5224292 9.80974824 46.7435865 10.2534578 46.9647438 10.6971673 46.9647438 11.1408769 46.9647438 11.5845864 46.7435865 11.8064412 46.5224292 12.4720055 45.8589574 12.4720055 44.7531709 11.8064412 44.0896991 6.48192667 38.560767 3.59781464 31.2625767 3.59781464 23.5220718L3.59781464 23.5220718zM34.8793374 31.2625767C38.207159 30.3779475 40.8694162 27.2817456 40.8694162 23.5220718 40.8694162 19.0989261 37.3197399 15.3392523 32.6607897 15.3392523 28.0018395 15.3392523 24.4521632 18.8777688 24.4521632 23.5220718 24.4521632 27.2817456 26.8925656 30.3779475 30.442242 31.2625767L18.9057939 66.4265847C18.6839391 66.8688993 18.9057939 67.5323711 19.1276486 67.9746857 19.3495034 68.4170003 20.0150677 68.6381575 20.4587773 68.6381575L44.8628021 68.6381575C45.3065117 68.6381575 45.972076 68.4170003 46.1939308 67.9746857 46.4157855 67.5323711 46.6376403 66.8688993 46.4157855 66.4265847L34.8793374 31.2625767 34.8793374 31.2625767z"/>
  </g>
</svg>
