<svg xmlns="http://www.w3.org/2000/svg" width="233" height="272" viewBox="0 0 233 272" xmlns:xlink="http://www.w3.org/1999/xlink">
  <defs>
    <filter id="a" width="200%" height="200%" x="-50%" y="-50%" filterUnits="objectBoundingBox">
      <feOffset dy="5" in="SourceAlpha" result="shadowOffsetOuter1"/>
      <feGaussianBlur stdDeviation="2" in="shadowOffsetOuter1" result="shadowBlurOuter1"/>
      <feColorMatrix values="0 0 0 0 0 0 0 0 0 0 0 0 0 0 0 0 0 0 0.5 0" in="shadowBlurOuter1" result="shadowMatrixOuter1"/>
      <feMerge>
        <feMergeNode in="shadowMatrixOuter1"/>
        <feMergeNode in="SourceGraphic"/>
      </feMerge>
    </filter>
    <polygon id="b" points="155.021 0 0 0 0 196.686 155.021 196.686 155.021 0"/>
    <polygon id="d" points="50.078 150.148 50.078 .054 .28 .054 .28 150.148 50.078 150.148"/>
  </defs>
  <g fill="none" fill-rule="evenodd" filter="url(#a)" transform="translate(4.446)">
    <polygon fill="#FFFFFF" fill-opacity=".2" points="111.961 0 0 82.549 0 263.118 223.922 263.118 223.785 82.468"/>
    <g transform="translate(19.102 48.233)">
      <path fill="#FFFFFF" d="M96.005449,195.111351 C44.9183404,195.111351 1.75726227,150.644763 1.75726227,98.0138428 C1.75726227,45.3804309 44.9183404,0.916334481 96.005449,0.916334481 C116.413003,0.916334481 135.968346,7.78762814 152.560106,20.7902683 L153.709153,21.6921568 L141.153421,33.6558812 L140.363451,33.062927 C126.93157,22.9727387 112.422458,18.0646718 96.005449,18.0646718 C52.7534047,18.0646718 18.8732749,53.1386646 18.8732749,97.9116952 C18.8732749,142.854141 52.3656013,178.057687 95.1197253,178.057687 C108.881957,178.057687 121.71777,174.534841 133.268086,167.588805 L134.046086,167.122913 L134.694819,167.765695 C137.938483,170.992064 145.596403,178.214646 145.673006,178.286896 L146.848385,179.39308 L145.500649,180.267563 C130.49601,189.976566 113.382391,195.111351 96.005449,195.111351"/>
      <g transform="translate(0 .281)">
        <mask id="c" fill="white">
          <use xlink:href="#b"/>
        </mask>
        <path fill="#FFFFFF" d="M95.4451107,0 C70.2642243,0 46.3927728,10.2820264 28.2282548,28.9551033 C10.0254351,47.6655512 0,72.3080333 0,98.3457019 C0,124.353474 10.0565551,148.998447 28.319221,167.733809 C46.5148591,186.404395 70.3527967,196.686421 95.4451107,196.686421 C113.047074,196.686421 130.378533,191.489351 145.572286,181.655778 L148.267759,179.911794 L145.914607,177.691953 C145.840397,177.619702 138.192053,170.409578 134.962752,167.195666 L133.665287,165.905118 L132.109286,166.839395 C120.740902,173.675809 108.108566,177.143844 94.559387,177.143844 C52.4755404,177.143844 19.5098606,142.483424 19.5098606,98.2435543 C19.5098606,54.168117 52.8657376,19.6422332 95.4451107,19.6422332 C111.60119,19.6422332 125.882887,24.4705752 139.104109,34.403805 L140.684049,35.5897135 L142.120358,34.2194411 L152.897461,23.952363 L155.020804,21.9293426 L152.720316,20.1255657 C135.917898,6.95849282 116.113594,0 95.4451107,0 M95.4451107,2.49140452 C116.194985,2.49140452 135.604304,9.83108223 151.27922,22.1161979 L140.50451,32.3832759 C127.350316,22.4998742 112.618576,17.1508287 95.4451107,17.1508287 C51.6089675,17.1508287 17.1160127,53.0993045 17.1160127,98.2435543 C17.1160127,143.377839 50.7232437,179.635249 94.559387,179.635249 C108.778844,179.635249 121.631413,176.017729 133.306209,168.996951 C136.59775,172.270657 144.308335,179.538084 144.308335,179.538084 C130.002699,188.798634 113.217038,194.195017 95.4451107,194.195017 C44.9923718,194.195017 2.39384793,150.854544 2.39384793,98.3457019 C2.39384793,45.8318775 44.7553808,2.49140452 95.4451107,2.49140452" mask="url(#c)"/>
      </g>
      <path fill="#960F7C" d="M57.9896549 98.6099446C57.9896549 86.6586771 67.7278282 76.9720964 79.7377633 76.9720964 91.7500922 76.9720964 101.485872 86.6586771 101.485872 98.6099446 101.485872 110.558721 91.7500922 120.250284 79.7377633 120.250284 67.7278282 120.250284 57.9896549 110.558721 57.9896549 98.6099446M125.637241 54.9800688L109.258533 70.5438729C113.61773 75.13304 119.693316 84.2391235 119.693316 98.5049058 119.693316 115.84259 109.361469 126.759924 103.678474 132.086547L119.98776 147.697688C126.08489 143.803623 142.293635 126.134582 142.293635 98.5721737 142.293635 76.5257351 132.170052 62.0382178 125.637241 54.9800688"/>
      <g transform="translate(136.234 25.657)">
        <mask id="e" fill="white">
          <use xlink:href="#d"/>
        </mask>
        <path fill="#960F7C" d="M20.9246724,0.0536759262 L5.80273508,14.4191144 C13.8867595,23.6223627 27.4766342,42.5545456 27.4766342,73.3557796 C27.4766342,111.379595 2.13057236,134.347854 0.280127914,135.957301 L15.1626805,150.148341 C18.3010151,147.729187 50.0793463,122.134989 50.0793463,73.3557796 C50.0793463,36.3883194 31.352274,11.2101854 20.9246724,0.0536759262" mask="url(#e)"/>
      </g>
    </g>
  </g>
</svg>
