<svg xmlns="http://www.w3.org/2000/svg" xmlns:xlink="http://www.w3.org/1999/xlink" x="0px" y="0px"
	 viewBox="0 0 165.7 306.2" style="enable-background:new 0 0 165.7 306.2;" xml:space="preserve">
<style type="text/css">
	.st0{filter:url(#a);}
	.st1{fill:#FFFFFF;}
	.st2{filter:url(#c);}
	.st3{filter:url(#e);}
	.st4{filter:url(#g);}
	.st5{filter:url(#i);}
	.st6{filter:url(#k);}
</style>
<filter  filterUnits="objectBoundingBox" height="200%" id="k" width="200%" x="-50%" y="-50%">
	<feOffset  dy="2" in="SourceAlpha" result="shadowOffsetOuter1"></feOffset>
	<feGaussianBlur  in="shadowOffsetOuter1" result="shadowBlurOuter1" stdDeviation="2"></feGaussianBlur>
	<feColorMatrix  in="shadowBlurOuter1" values="0 0 0 0 0 0 0 0 0 0 0 0 0 0 0 0 0 0 0.5 0"></feColorMatrix>
</filter>
<filter  filterUnits="objectBoundingBox" height="200%" id="i" width="200%" x="-50%" y="-50%">
	<feOffset  dy="2" in="SourceAlpha" result="shadowOffsetOuter1"></feOffset>
	<feGaussianBlur  in="shadowOffsetOuter1" result="shadowBlurOuter1" stdDeviation="2"></feGaussianBlur>
	<feColorMatrix  in="shadowBlurOuter1" values="0 0 0 0 0 0 0 0 0 0 0 0 0 0 0 0 0 0 0.5 0"></feColorMatrix>
</filter>
<filter  filterUnits="objectBoundingBox" height="200%" id="g" width="200%" x="-50%" y="-50%">
	<feOffset  dy="2" in="SourceAlpha" result="shadowOffsetOuter1"></feOffset>
	<feGaussianBlur  in="shadowOffsetOuter1" result="shadowBlurOuter1" stdDeviation="2"></feGaussianBlur>
	<feColorMatrix  in="shadowBlurOuter1" values="0 0 0 0 0 0 0 0 0 0 0 0 0 0 0 0 0 0 0.5 0"></feColorMatrix>
</filter>
<filter  filterUnits="objectBoundingBox" height="200%" id="e" width="200%" x="-50%" y="-50%">
	<feOffset  dy="2" in="SourceAlpha" result="shadowOffsetOuter1"></feOffset>
	<feGaussianBlur  in="shadowOffsetOuter1" result="shadowBlurOuter1" stdDeviation="2"></feGaussianBlur>
	<feColorMatrix  in="shadowBlurOuter1" values="0 0 0 0 0 0 0 0 0 0 0 0 0 0 0 0 0 0 0.5 0"></feColorMatrix>
</filter>
<filter  filterUnits="objectBoundingBox" height="200%" id="c" width="200%" x="-50%" y="-50%">
	<feOffset  dy="2" in="SourceAlpha" result="shadowOffsetOuter1"></feOffset>
	<feGaussianBlur  in="shadowOffsetOuter1" result="shadowBlurOuter1" stdDeviation="2"></feGaussianBlur>
	<feColorMatrix  in="shadowBlurOuter1" values="0 0 0 0 0 0 0 0 0 0 0 0 0 0 0 0 0 0 0.5 0"></feColorMatrix>
</filter>
<filter  filterUnits="objectBoundingBox" height="200%" id="a" width="200%" x="-50%" y="-50%">
	<feOffset  dy="2" in="SourceAlpha" result="shadowOffsetOuter1"></feOffset>
	<feGaussianBlur  in="shadowOffsetOuter1" result="shadowBlurOuter1" stdDeviation="2"></feGaussianBlur>
	<feColorMatrix  in="shadowBlurOuter1" values="0 0 0 0 0 0 0 0 0 0 0 0 0 0 0 0 0 0 0.5 0"></feColorMatrix>
</filter>
<g transform="translate(4 2)">
	<g class="st0">
		<path id="b_2_" d="M-4,32.3L8.6,44.9c38.5-38.5,101.6-38.5,140.1,0l13-12.6C116-13.4,41.8-13.4-4,32.3z"/>
	</g>
	<g>
		<path id="b_1_" class="st1" d="M-4,32.3L8.6,44.9c38.5-38.5,101.6-38.5,140.1,0l13-12.6C116-13.4,41.8-13.4-4,32.3z"/>
	</g>
	<g class="st2">
		<path id="d_2_" d="M136.1,57.9C121,42.4,100.5,34.1,78.9,34.1s-42.2,8.3-57.3,23.8l12.6,12.6c24.5-24.5,64.5-24.5,89,0L136.1,57.9
			z"/>
	</g>
	<g>
		<path id="d_1_" class="st1" d="M136.1,57.9C121,42.4,100.5,34.1,78.9,34.1s-42.2,8.3-57.3,23.8l12.6,12.6
			c24.5-24.5,64.5-24.5,89,0L136.1,57.9z"/>
	</g>
	<g class="st3">
		<path id="f_2_" d="M47.2,83.4l12.6,12.6c2.9-2.9,6.5-5,10.1-6.5c5.8-2.2,11.9-2.2,17.7,0c3.6,1.4,7.2,3.2,10.1,6.5l12.6-12.6
			C93.3,65.8,64.5,65.8,47.2,83.4z"/>
	</g>
	<g>
		<path id="f_1_" class="st1" d="M47.2,83.4l12.6,12.6c2.9-2.9,6.5-5,10.1-6.5c5.8-2.2,11.9-2.2,17.7,0c3.6,1.4,7.2,3.2,10.1,6.5
			l12.6-12.6C93.3,65.8,64.5,65.8,47.2,83.4z"/>
	</g>
	<g class="st4">
		<path id="h_2_" d="M78.9,106.1c-11.9,0-21.6,7.6-25.6,18H15.8v180.1h126.1V124.1h-37.5C100.5,113.7,90.8,106.1,78.9,106.1z
			 M123.9,286.2H33.8V142.2h19.5c3.6,10.4,13.7,18,25.6,18s21.6-7.6,25.6-18h19.5V286.2z M78.9,124.1c5,0,9,4,9,9c0,5-4,9-9,9
			s-9-4-9-9C69.9,128.1,73.8,124.1,78.9,124.1z"/>
	</g>
	<g>
		<path id="h_1_" class="st1" d="M78.9,106.1c-11.9,0-21.6,7.6-25.6,18H15.8v180.1h126.1V124.1h-37.5
			C100.5,113.7,90.8,106.1,78.9,106.1z M123.9,286.2H33.8V142.2h19.5c3.6,10.4,13.7,18,25.6,18s21.6-7.6,25.6-18h19.5V286.2z
			 M78.9,124.1c5,0,9,4,9,9c0,5-4,9-9,9s-9-4-9-9C69.9,128.1,73.8,124.1,78.9,124.1z"/>
	</g>
	<g>
		<g class="st5">
			<rect id="j_2_" x="60.8" y="178.2" width="36" height="18"/>
		</g>
		<g>
			<rect id="j_1_" x="60.8" y="178.2" class="st1" width="36" height="18"/>
		</g>
	</g>
	<g>
		<g class="st6">
			<rect id="l_2_" x="60.8" y="214.2" width="36" height="18"/>
		</g>
		<g>
			<rect id="l_1_" x="60.8" y="214.2" class="st1" width="36" height="18"/>
		</g>
	</g>
	<rect x="60.8" y="250.2" class="st1" width="36" height="18"/>
</g>
</svg>
