<svg xmlns="http://www.w3.org/2000/svg" width="291" height="355" viewBox="0 0 291 355" xmlns:xlink="http://www.w3.org/1999/xlink">
  <defs>
    <path id="b" d="M141.645257,345.935518 C141.645257,345.825447 0.459887198,283.038151 0.459887198,94.3460503 L141.645257,0 L282.830627,94.3460503 C282.830627,283.038151 141.645257,345.935518 141.645257,345.935518 L141.645257,345.935518 Z M188.707047,172.967759 C188.707047,164.287922 181.679153,157.243417 173.019784,157.243417 L173.019784,141.519075 C173.019784,124.143678 158.979683,110.070392 141.645257,110.070392 C124.310831,110.070392 110.27073,124.143678 110.27073,141.519075 L110.27073,157.243417 C101.611361,157.243417 94.5834671,164.287922 94.5834671,172.967759 L94.5834671,204.416442 C94.5834671,213.096279 101.611361,220.140784 110.27073,220.140784 L173.019784,220.140784 C181.679153,220.140784 188.707047,213.096279 188.707047,204.416442 L188.707047,172.967759 L188.707047,172.967759 Z M141.645257,204.416442 C132.985888,204.416442 125.957994,197.371937 125.957994,188.692101 C125.957994,180.012264 132.985888,172.967759 141.645257,172.967759 C150.304626,172.967759 157.33252,180.012264 157.33252,188.692101 C157.33252,197.371937 150.304626,204.416442 141.645257,204.416442 L141.645257,204.416442 Z M125.957994,141.519075 C125.957994,132.839239 132.985888,125.794734 141.645257,125.794734 C150.304626,125.794734 157.33252,132.839239 157.33252,141.519075 L157.33252,157.243417 L125.957994,157.243417 L125.957994,141.519075 L125.957994,141.519075 Z"/>
    <filter id="a" width="200%" height="200%" x="-50%" y="-50%" filterUnits="objectBoundingBox">
      <feOffset dy="5" in="SourceAlpha" result="shadowOffsetOuter1"/>
      <feGaussianBlur stdDeviation="2" in="shadowOffsetOuter1" result="shadowBlurOuter1"/>
      <feColorMatrix values="0 0 0 0 0 0 0 0 0 0 0 0 0 0 0 0 0 0 0.5 0" in="shadowBlurOuter1"/>
    </filter>
  </defs>
  <g fill="none" fill-rule="evenodd" transform="translate(4)">
    <use fill="black" filter="url(#a)" xlink:href="#b"/>
    <use fill="#FFFFFF" xlink:href="#b"/>
  </g>
</svg>
