<svg xmlns="http://www.w3.org/2000/svg" width="313" height="339" viewBox="0 0 313 339" xmlns:xlink="http://www.w3.org/1999/xlink">
  <defs>
    <path id="b" d="M1.78466283e-12,177.32332 C-0.0530404405,134.717 17.6392615,102.48422 34.7414885,82.0218 L34.7414885,82.0218 C51.9365363,61.39057 68.63433,51.45064 70.1327224,50.52384 L70.1327224,50.52384 C81.2977351,43.92701 95.6484893,47.71365 102.179094,58.98089 L102.179094,58.98089 C108.696438,70.20841 105.000182,84.62346 93.92799,91.25339 L93.92799,91.25339 L93.9313051,91.2567 C93.9313051,91.2567 93.9180449,91.26001 93.8815796,91.28318 L93.8815796,91.28318 C93.8517444,91.29642 93.805334,91.32952 93.7423485,91.36924 L93.7423485,91.36924 C93.5169266,91.50826 93.0992331,91.78299 92.5257334,92.17688 L92.5257334,92.17688 C91.3621587,92.95142 89.5521537,94.24563 87.3145101,96.0231 L87.3145101,96.0231 C82.842538,99.57473 76.6964769,105.0925 70.6432367,112.39105 L70.6432367,112.39105 C58.4804007,127.17682 46.8877494,148.13243 46.838024,177.32001 L46.838024,177.32001 C46.8479691,206.7426 58.5964266,233.19943 77.7141904,252.52983 L77.7141904,252.52983 C96.8750495,271.82713 123.086972,283.69679 152.236009,283.70341 L152.236009,283.70341 C181.385046,283.69679 207.593654,271.82713 226.751198,252.52983 L226.751198,252.52983 C245.875592,233.19943 257.624049,206.7426 257.633995,177.32001 L257.633995,177.32001 C257.580954,149.02613 246.714294,128.52068 234.969151,113.78456 L234.969151,113.78456 C223.787563,99.81305 211.823629,92.03124 210.633534,91.30635 L210.633534,91.30635 C210.620274,91.29642 210.603699,91.29311 210.593754,91.28649 L210.593754,91.28649 C210.577179,91.27656 210.567234,91.26994 210.557289,91.26663 L210.557289,91.26663 C210.547344,91.2567 210.534083,91.2567 210.534083,91.2567 L210.534083,91.2567 L210.534083,91.2567 C199.475152,84.62015 195.775581,70.2051 202.286295,58.97758 L202.286295,58.97758 C208.823529,47.71034 223.170968,43.9237 234.332666,50.52053 L234.332666,50.52053 C235.837689,51.44402 252.535482,61.38395 269.73053,82.01849 L269.73053,82.01849 C286.842702,102.48422 304.525059,134.71369 304.475334,177.32001 L304.475334,177.32001 C304.462073,262.17848 236.305107,330.97021 152.239324,331 L152.239324,331 C68.1735412,330.97021 0.0198901652,262.17848 1.78466283e-12,177.32332 L1.78466283e-12,177.32332 L1.78466283e-12,177.32332 Z"/>
    <filter id="a" width="200%" height="200%" x="-50%" y="-50%" filterUnits="objectBoundingBox">
      <feOffset dy="3" in="SourceAlpha" result="shadowOffsetOuter1"/>
      <feGaussianBlur stdDeviation="2" in="shadowOffsetOuter1" result="shadowBlurOuter1"/>
      <feColorMatrix values="0 0 0 0 0 0 0 0 0 0 0 0 0 0 0 0 0 0 0.5 0" in="shadowBlurOuter1"/>
    </filter>
    <path id="d" d="M128.818655,165.50331 L128.818655,94.57001 L128.818655,23.64333 C128.818655,10.58869 139.304087,0 152.242639,0 L152.242639,0 C165.167932,0 175.653364,10.58869 175.653364,23.64333 L175.653364,23.64333 L175.653364,94.57001 L175.653364,165.50331 L175.659994,165.50331 C175.659994,178.54802 165.167932,189.14002 152.242639,189.14002 L152.242639,189.14002 C139.304087,189.14002 128.818655,178.54802 128.818655,165.50331 L128.818655,165.50331 L128.818655,165.50331 Z"/>
    <filter id="c" width="200%" height="200%" x="-50%" y="-50%" filterUnits="objectBoundingBox">
      <feOffset dy="3" in="SourceAlpha" result="shadowOffsetOuter1"/>
      <feGaussianBlur stdDeviation="2" in="shadowOffsetOuter1" result="shadowBlurOuter1"/>
      <feColorMatrix values="0 0 0 0 0 0 0 0 0 0 0 0 0 0 0 0 0 0 0.5 0" in="shadowBlurOuter1"/>
    </filter>
  </defs>
  <g fill="none" fill-rule="evenodd" transform="translate(4 1)">
    <use fill="black" filter="url(#a)" xlink:href="#b"/>
    <use fill="#FFFFFF" xlink:href="#b"/>
    <g>
      <use fill="black" filter="url(#c)" xlink:href="#d"/>
      <use fill="#FFFFFF" xlink:href="#d"/>
    </g>
  </g>
</svg>
