<svg xmlns="http://www.w3.org/2000/svg" width="197" height="187" viewBox="0 0 197 187" xmlns:xlink="http://www.w3.org/1999/xlink">
  <defs>
    <radialGradient id="a" r="25.625%" fx="50%" fy="50%">
      <stop stop-color="#000000" offset="0%"/>
      <stop stop-color="#000000" stop-opacity="0" offset="100%"/>
    </radialGradient>
    <path id="c" d="M7.30293735e-13,78.75084 C-0.0234769163,59.829 7.80754197,45.51414 15.3773802,36.4266 L15.3773802,36.4266 C22.988303,27.26409 30.3791297,22.84968 31.0423525,22.43808 L31.0423525,22.43808 C35.9842434,19.50837 42.3362166,21.19005 45.2268119,26.19393 L45.2268119,26.19393 C48.111538,31.18017 46.4754904,37.58202 41.5746841,40.52643 L41.5746841,40.52643 L41.5761514,40.5279 C41.5761514,40.5279 41.5702822,40.52937 41.5541418,40.53966 L41.5541418,40.53966 C41.540936,40.54554 41.5203937,40.56024 41.4925149,40.57788 L41.4925149,40.57788 C41.392738,40.63962 41.2078573,40.76163 40.9540131,40.93656 L40.9540131,40.93656 C40.4389883,41.28054 39.6378385,41.85531 38.6474061,42.6447 L38.6474061,42.6447 C36.6680086,44.22201 33.9476209,46.6725 31.2683179,49.91385 L31.2683179,49.91385 C25.8847675,56.48034 20.753594,65.78691 20.7315844,78.74937 L20.7315844,78.74937 C20.7359863,91.8162 25.9361233,103.56591 34.3980843,112.15071 L34.3980843,112.15071 C42.8791203,120.72081 54.4811188,125.99223 67.3831516,125.99517 L67.3831516,125.99517 C80.2851844,125.99223 91.8857157,120.72081 100.365284,112.15071 L100.365284,112.15071 C108.83018,103.56591 114.030317,91.8162 114.034719,78.74937 L114.034719,78.74937 C114.011242,66.18381 109.201409,57.07716 104.002739,50.53272 L104.002739,50.53272 C99.0535117,44.32785 93.7579998,40.87188 93.2312365,40.54995 L93.2312365,40.54995 C93.2253672,40.54554 93.2180307,40.54407 93.2136288,40.54113 L93.2136288,40.54113 C93.2062922,40.53672 93.2018903,40.53378 93.1974884,40.53231 L93.1974884,40.53231 C93.1930865,40.5279 93.1872172,40.5279 93.1872172,40.5279 L93.1872172,40.5279 L93.1872172,40.5279 C88.2922802,37.58055 86.6547653,31.1787 89.5365568,26.19246 L89.5365568,26.19246 C92.4300867,21.18858 98.7805925,19.5069 103.721016,22.43661 L103.721016,22.43661 C104.387174,22.84674 111.778,27.26115 119.388923,36.42513 L119.388923,36.42513 C126.963163,45.51414 134.78978,59.82753 134.767771,78.74937 L134.767771,78.74937 C134.761901,116.43576 104.594064,146.98677 67.3846189,147 L67.3846189,147 C30.175174,146.98677 0.0088038436,116.43576 7.30293735e-13,78.75084 L7.30293735e-13,78.75084 L7.30293735e-13,78.75084 Z"/>
    <filter id="b" width="200%" height="200%" x="-50%" y="-50%" filterUnits="objectBoundingBox">
      <feOffset dy="3" in="SourceAlpha" result="shadowOffsetOuter1"/>
      <feGaussianBlur stdDeviation="2" in="shadowOffsetOuter1" result="shadowBlurOuter1"/>
      <feColorMatrix values="0 0 0 0 0 0 0 0 0 0 0 0 0 0 0 0 0 0 0.5 0" in="shadowBlurOuter1"/>
    </filter>
    <path id="e" d="M57.0180931,73.50147 L57.0180931,41.99937 L57.0180931,10.50021 C57.0180931,4.70253 61.659186,0 67.3860863,0 L67.3860863,0 C73.1071173,0 77.7482102,4.70253 77.7482102,10.50021 L77.7482102,10.50021 L77.7482102,41.99937 L77.7482102,73.50147 L77.7511448,73.50147 C77.7511448,79.29474 73.1071173,83.99874 67.3860863,83.99874 L67.3860863,83.99874 C61.659186,83.99874 57.0180931,79.29474 57.0180931,73.50147 L57.0180931,73.50147 L57.0180931,73.50147 Z"/>
    <filter id="d" width="200%" height="200%" x="-50%" y="-50%" filterUnits="objectBoundingBox">
      <feOffset dy="3" in="SourceAlpha" result="shadowOffsetOuter1"/>
      <feGaussianBlur stdDeviation="2" in="shadowOffsetOuter1" result="shadowBlurOuter1"/>
      <feColorMatrix values="0 0 0 0 0 0 0 0 0 0 0 0 0 0 0 0 0 0 0.5 0" in="shadowBlurOuter1"/>
    </filter>
  </defs>
  <g fill="none" fill-rule="evenodd" transform="translate(-94 1)">
    <ellipse cx="192.5" cy="18.708" fill="url(#a)" rx="192.5" ry="18.708" transform="translate(0 151)" opacity=".2"/>
    <g transform="translate(125)">
      <use fill="black" filter="url(#b)" xlink:href="#c"/>
      <use fill="#FFFFFF" xlink:href="#c"/>
      <g>
        <use fill="black" filter="url(#d)" xlink:href="#e"/>
        <use fill="#FFFFFF" xlink:href="#e"/>
      </g>
    </g>
  </g>
</svg>
