<svg xmlns="http://www.w3.org/2000/svg" width="197" height="203" viewBox="0 0 197 203" xmlns:xlink="http://www.w3.org/1999/xlink">
  <defs>
    <radialGradient id="a" r="25.625%" fx="50%" fy="50%">
      <stop stop-color="#000000" offset="0%"/>
      <stop stop-color="#000000" stop-opacity="0" offset="100%"/>
    </radialGradient>
    <path id="c" d="M70.0718586,171.134178 C70.0718586,171.079727 0.227506034,140.018873 0.227506034,46.6729577 L70.0718586,0 L139.916211,46.6729577 C139.916211,140.018873 70.0718586,171.134178 70.0718586,171.134178 L70.0718586,171.134178 Z M93.3533095,85.5670892 C93.3533095,81.2731771 89.8766128,77.7882629 85.5928259,77.7882629 L85.5928259,70.0094366 C85.5928259,61.4138336 78.647193,54.451784 70.0718586,54.451784 C61.4965242,54.451784 54.5508914,61.4138336 54.5508914,70.0094366 L54.5508914,77.7882629 C50.2671044,77.7882629 46.7904078,81.2731771 46.7904078,85.5670892 L46.7904078,101.124742 C46.7904078,105.418654 50.2671044,108.903568 54.5508914,108.903568 L85.5928259,108.903568 C89.8766128,108.903568 93.3533095,105.418654 93.3533095,101.124742 L93.3533095,85.5670892 L93.3533095,85.5670892 Z M70.0718586,101.124742 C65.7880717,101.124742 62.311375,97.6398276 62.311375,93.3459155 C62.311375,89.0520034 65.7880717,85.5670892 70.0718586,85.5670892 C74.3556456,85.5670892 77.8323422,89.0520034 77.8323422,93.3459155 C77.8323422,97.6398276 74.3556456,101.124742 70.0718586,101.124742 L70.0718586,101.124742 Z M62.311375,70.0094366 C62.311375,65.7155245 65.7880717,62.2306103 70.0718586,62.2306103 C74.3556456,62.2306103 77.8323422,65.7155245 77.8323422,70.0094366 L77.8323422,77.7882629 L62.311375,77.7882629 L62.311375,70.0094366 L62.311375,70.0094366 Z"/>
    <filter id="b" width="200%" height="200%" x="-50%" y="-50%" filterUnits="objectBoundingBox">
      <feOffset dy="5" in="SourceAlpha" result="shadowOffsetOuter1"/>
      <feGaussianBlur stdDeviation="2" in="shadowOffsetOuter1" result="shadowBlurOuter1"/>
      <feColorMatrix values="0 0 0 0 0 0 0 0 0 0 0 0 0 0 0 0 0 0 0.5 0" in="shadowBlurOuter1"/>
    </filter>
  </defs>
  <g fill="none" fill-rule="evenodd" transform="translate(-94)">
    <ellipse cx="192.5" cy="18.708" fill="url(#a)" rx="192.5" ry="18.708" transform="translate(0 168)" opacity=".2"/>
    <g transform="translate(126)">
      <use fill="black" filter="url(#b)" xlink:href="#c"/>
      <use fill="#FFFFFF" xlink:href="#c"/>
    </g>
  </g>
</svg>
