<svg xmlns="http://www.w3.org/2000/svg" width="425" height="499" viewBox="0 0 425 499" xmlns:xlink="http://www.w3.org/1999/xlink">
  <defs>
    <polygon id="a" points="248.456 0 0 0 0 315.827 248.456 315.827 248.456 0"/>
    <polygon id="c" points="79.941 241.1 79.941 .086 .129 .086 .129 241.1 79.941 241.1"/>
  </defs>
  <g fill="none" fill-rule="evenodd">
    <polygon fill="#FFFFFF" fill-opacity=".2" points="424.642 156.391 212.451 0 0 156.544 0 498.973 424.902 498.973"/>
    <g transform="translate(63 136)">
      <path fill="#FFFFFF" d="M153.870659,312.978278 C71.9918997,312.978278 2.81641414,241.576297 2.81641414,157.064484 C2.81641414,72.5486702 71.9918997,1.15069004 153.870659,1.15069004 C186.578425,1.15069004 217.92033,12.1842323 244.512414,33.0631508 L246.354025,34.5113533 L226.230596,53.7220386 L224.964489,52.7699055 C203.436832,36.5676407 180.182666,28.6865391 153.870659,28.6865391 C84.5493796,28.6865391 30.2487337,85.0064115 30.2487337,156.900461 C30.2487337,229.066549 83.9278362,285.59445 152.451085,285.59445 C174.508204,285.59445 195.080526,279.937659 213.592545,268.7841 L214.839469,268.035996 L215.879212,269.06814 C221.077924,274.248864 233.351489,285.846485 233.474263,285.962502 L235.358077,287.73875 L233.198021,289.142946 C209.149661,304.733125 181.721178,312.978278 153.870659,312.978278"/>
      <g transform="translate(0 .131)">
        <mask id="b" fill="white">
          <use xlink:href="#a"/>
        </mask>
        <path fill="#FFFFFF" d="M152.972589,0 C112.614468,0 74.3550144,16.5103078 45.2422255,46.4944991 C16.0680495,76.5386987 0,116.10823 0,157.918074 C0,199.679912 16.1179265,239.253443 45.3880196,269.337649 C74.5506855,299.317839 112.756425,315.828147 152.972589,315.828147 C181.183756,315.828147 208.961378,307.482981 233.312837,291.692773 L237.632948,288.892382 L233.861483,285.327884 C233.742546,285.211867 221.484328,273.634249 216.308635,268.473528 L214.229151,266.401238 L211.735303,267.901448 C193.514872,278.878982 173.268669,284.447761 151.553015,284.447761 C84.1040387,284.447761 31.2690076,228.791981 31.2690076,157.754051 C31.2690076,86.9801582 84.7294189,31.5404088 152.972589,31.5404088 C178.866397,31.5404088 201.756078,39.2934925 222.946106,55.2437221 L225.47832,57.1479883 L227.780333,54.9476807 L245.053102,38.4613762 L248.456245,35.2129221 L244.769187,32.3165173 C217.839474,11.1735619 186.098554,0 152.972589,0 M152.972589,4.00055921 C186.229001,4.00055921 217.336868,15.7862066 242.459501,35.5129641 L225.190568,51.9992686 C204.107967,36.1290502 180.496989,27.5398496 152.972589,27.5398496 C82.7151576,27.5398496 27.4323195,85.2639183 27.4323195,157.754051 C27.4323195,230.228182 81.2955831,288.44832 151.553015,288.44832 C174.342942,288.44832 194.94212,282.639508 213.653647,271.365932 C218.929093,276.622667 231.287066,288.292298 231.287066,288.292298 C208.359018,303.162377 181.456161,311.827588 152.972589,311.827588 C72.1105519,311.827588 3.83668805,242.23386 3.83668805,157.918074 C3.83668805,73.5942871 71.7307198,4.00055921 152.972589,4.00055921" mask="url(#b)"/>
      </g>
      <path fill="#960F7C" d="M92.9416665 158.021671C92.9416665 138.830989 108.549314 123.276815 127.797977 123.276815 147.050478 123.276815 162.654288 138.830989 162.654288 158.021671 162.654288 177.208353 147.050478 192.770529 127.797977 192.770529 108.549314 192.770529 92.9416665 177.208353 92.9416665 158.021671M201.362374 87.9632364L175.111754 112.95473C182.098363 120.32376 191.835877 134.945804 191.835877 157.853006 191.835877 185.692897 175.276732 203.223348 166.168434 211.776543L192.30779 236.844047C202.079834 230.591173 228.058049 202.219207 228.058049 157.961021 228.058049 122.560072 211.832695 99.2968206 201.362374 87.9632364"/>
      <g transform="translate(218.666 40.878)">
        <mask id="d" fill="white">
          <use xlink:href="#c"/>
        </mask>
        <path fill="#960F7C" d="M33.2164382,0.0861898255 L8.98007981,23.1534142 C21.9365754,37.9314799 43.7174534,68.3317293 43.7174534,117.790643 C43.7174534,178.847177 3.09460034,215.728333 0.128840483,218.312694 L23.9815301,241.099879 C29.0114281,237.215336 79.943462,196.117591 79.943462,117.790643 C79.943462,58.4303453 49.9290514,18.0006939 33.2164382,0.0861898255" mask="url(#d)"/>
      </g>
    </g>
  </g>
</svg>
