<svg width="274px" height="213px" viewBox="23 301 274 213" version="1.1" xmlns="http://www.w3.org/2000/svg" xmlns:xlink="http://www.w3.org/1999/xlink">
    <defs>
        <polygon id="path-1" points="80.7417443 0 3.56880659e-15 0 0 102.903212 80.7417443 102.903212 80.7417443 0"></polygon>
        <polygon id="path-3" points="25.9787743 78.5555262 25.9787743 0.0280824989 0.041869768 0.0280824989 0.041869768 78.5555262 25.9787743 78.5555262"></polygon>
    </defs>
    <g id="schema" stroke="none" stroke-width="1" fill="none" fill-rule="evenodd" transform="translate(23.000000, 301.000000)">
        <g id="Group-13" transform="translate(119.678161, 149.523333)">
            <path d="M18.6790892,0.0541100381 L18.6790892,35.4575146" id="Line" stroke="#B0097F" stroke-width="4" stroke-linecap="round" stroke-dasharray="1,11"></path>
            <g id="noun_629236_cc" opacity="0.8" transform="translate(0.451979, 23.388172)" fill="#FFFFFF">
                <path d="M23.4376017,19.6694322 C23.562126,19.7936401 23.8111748,19.9178479 24.0602235,19.9178479 C24.3092723,19.9178479 24.558321,19.7936401 24.6828454,19.6694322 C28.2940522,16.0674048 28.2940522,10.2296361 24.6828454,6.62760869 C24.3092723,6.25498516 23.6866504,6.25498516 23.3130773,6.62760869 C22.9395042,7.00023222 22.9395042,7.62127144 23.3130773,7.99389497 C26.1771379,10.8506754 26.1771379,15.4463656 23.3130773,18.3031459 C23.1885529,18.6757695 23.1885529,19.2968087 23.4376017,19.6694322 L23.4376017,19.6694322 Z" id="Shape"></path>
                <path d="M11.8568349,19.6694322 C11.9813593,19.7936401 12.230408,19.9178479 12.4794568,19.9178479 C12.7285055,19.9178479 12.9775543,19.7936401 13.1020787,19.6694322 C13.4756518,19.2968087 13.4756518,18.6757695 13.1020787,18.3031459 C10.2380181,15.4463656 10.2380181,10.8506754 13.1020787,7.99389497 C13.4756518,7.62127144 13.4756518,7.00023222 13.1020787,6.62760869 C12.7285055,6.25498516 12.1058837,6.25498516 11.7323106,6.62760869 C8.24562809,10.2296361 8.24562809,16.0674048 11.8568349,19.6694322 L11.8568349,19.6694322 Z" id="Shape"></path>
                <path d="M28.1695279,3.39820477 C27.7959547,3.02558124 27.1733329,3.02558124 26.7997597,3.39820477 C26.4261866,3.7708283 26.4261866,4.39186752 26.7997597,4.76449105 C31.5316859,9.48438909 31.5316859,17.0610675 26.7997597,21.6567577 C26.4261866,22.0293812 26.4261866,22.6504205 26.7997597,23.023044 C26.9242841,23.1472518 27.1733329,23.2714597 27.4223816,23.2714597 C27.6714304,23.2714597 27.9204791,23.1472518 28.0450035,23.023044 C33.5240759,17.5578989 33.5240759,8.73914203 28.1695279,3.39820477 L28.1695279,3.39820477 Z" id="Shape"></path>
                <path d="M9.86444495,4.76449105 C10.2380181,4.39186752 10.2380181,3.7708283 9.86444495,3.39820477 C9.49087183,3.02558124 8.86824996,3.02558124 8.49467684,3.39820477 C3.14012878,8.73914203 3.14012878,17.5578989 8.49467684,23.023044 C8.61920121,23.1472518 8.86824996,23.2714597 9.11729871,23.2714597 C9.36634745,23.2714597 9.6153962,23.1472518 9.73992057,23.023044 C10.1134937,22.6504205 10.1134937,22.0293812 9.73992057,21.6567577 C5.13251875,16.9368597 5.13251875,9.36018124 9.86444495,4.76449105 L9.86444495,4.76449105 Z" id="Shape"></path>
                <path d="M31.2826372,0.293008695 C30.9090641,-0.0796148346 30.2864422,-0.0796148346 29.9128691,0.293008695 C29.539296,0.665632224 29.539296,1.28667144 29.9128691,1.65929497 C33.0259784,4.76449105 34.6447953,8.86334987 34.6447953,13.2106244 C34.6447953,17.5578989 32.9014541,21.6567577 29.9128691,24.7619538 C29.539296,25.1345773 29.539296,25.7556165 29.9128691,26.1282401 C30.0373935,26.2524479 30.2864422,26.3766557 30.535491,26.3766557 C30.7845397,26.3766557 31.0335884,26.2524479 31.1581128,26.1282401 C34.6447953,22.6504205 36.5126609,18.1789381 36.5126609,13.2106244 C36.6371853,8.3665185 34.6447953,3.7708283 31.2826372,0.293008695 L31.2826372,0.293008695 Z" id="Shape"></path>
                <path d="M2.01940942,13.2106244 C2.01940942,8.86334987 3.76275065,4.76449105 6.75133561,1.65929497 C7.12490873,1.28667144 7.12490873,0.665632224 6.75133561,0.293008695 C6.37776249,-0.0796148346 5.75514062,-0.0796148346 5.3815675,0.293008695 C2.01940942,3.7708283 0.0270194395,8.3665185 0.0270194395,13.2106244 C0.0270194395,18.0547303 1.89488504,22.6504205 5.3815675,26.1282401 C5.50609187,26.2524479 5.75514062,26.3766557 6.00418937,26.3766557 C6.25323812,26.3766557 6.50228686,26.2524479 6.62681124,26.1282401 C7.00038436,25.7556165 7.00038436,25.1345773 6.62681124,24.7619538 C3.63822627,21.6567577 2.01940942,17.5578989 2.01940942,13.2106244 L2.01940942,13.2106244 Z" id="Shape"></path>
                <path d="M19.5773461,17.5578989 C21.4452117,17.0610675 22.9395042,15.3221577 22.9395042,13.2106244 C22.9395042,10.7264675 20.9471142,8.61493418 18.3321023,8.61493418 C15.7170905,8.61493418 13.7247005,10.6022597 13.7247005,13.2106244 C13.7247005,15.3221577 15.0944686,17.0610675 17.0868586,17.5578989 L10.6115912,37.3069459 C10.4870668,37.5553616 10.6115912,37.9279852 10.7361156,38.1764008 C10.8606399,38.4248165 11.2342131,38.5490244 11.4832618,38.5490244 L25.1809429,38.5490244 C25.4299916,38.5490244 25.8035648,38.4248165 25.9280891,38.1764008 C26.0526135,37.9279852 26.1771379,37.5553616 26.0526135,37.3069459 L19.5773461,17.5578989 L19.5773461,17.5578989 Z" id="Shape"></path>
            </g>
        </g>
        <g id="Group-6" transform="translate(75.000000, 0.000000)">
            <g id="home" transform="translate(0.061303, 0.000000)" fill-opacity="0.2" fill="#FFFFFF">
                <polygon id="Shape" points="125.607642 46.316417 62.8422582 0 0 46.3615102 0 147.774378 125.684516 147.774378"></polygon>
            </g>
            <g id="logo" transform="translate(13.183908, 38.298959)">
                <path d="M50.003917,101.975054 C23.3954738,101.975054 0.915260514,78.7107534 0.915260514,51.174987 C0.915260514,23.6379171 23.3954738,0.374919564 50.003917,0.374919564 C60.6330805,0.374919564 70.8183751,3.96988495 79.4601032,10.7726857 L80.0585781,11.2445412 L73.5189931,17.5037956 L73.1075416,17.1935702 C66.1116194,11.9145238 58.554627,9.34669141 50.003917,9.34669141 C27.4763245,9.34669141 9.83004281,27.6969172 9.83004281,51.1215448 C9.83004281,74.6348083 27.2743392,93.0528144 49.5425926,93.0528144 C56.7105763,93.0528144 63.3960396,91.2097103 69.4119591,87.5756409 L69.8171765,87.3318923 L70.1550654,87.6681871 C71.8445102,89.3561785 75.833096,93.1349329 75.8729943,93.1727335 L76.4851843,93.7514734 L75.7832231,94.2089907 C67.9681384,99.2886064 59.0546029,101.975054 50.003917,101.975054" id="Fill-1" fill="#FFFFFF"></path>
                <g id="Group-5" transform="translate(0.000000, 0.042755)">
                    <mask id="mask-2" fill="white">
                        <use xlink:href="#path-1"></use>
                    </mask>
                    <g id="Clip-4"></g>
                    <path d="M49.7120678,0 C36.5967398,0 24.1634239,5.3794134 14.7025333,15.1489078 C5.22169346,24.9379542 0,37.8305585 0,51.453105 C0,65.0600099 5.23790216,77.9539177 14.7499125,87.7559988 C24.2270119,97.5241897 36.6428723,102.903603 49.7120678,102.903603 C58.8799551,102.903603 67.9069515,100.184568 75.8205351,95.0397793 L77.2244575,94.1273515 L75.9988308,92.9659613 C75.9601793,92.9281607 71.9765807,89.1559237 70.2946169,87.4744497 L69.618839,86.7992531 L68.8084043,87.2880537 C62.8872433,90.8647705 56.3077599,92.6791983 49.2507434,92.6791983 C27.3316004,92.6791983 10.161605,74.5453483 10.161605,51.3996628 C10.161605,28.3400063 27.5348325,10.2765436 49.7120678,10.2765436 C58.1268742,10.2765436 65.5654184,12.802665 72.4516202,17.9995928 L73.2745232,18.6200437 L74.0226168,17.9031362 L79.6358126,12.5315436 L80.7417443,11.4731274 L79.5435477,10.5294164 C70.7920992,3.64058678 60.477135,0 49.7120678,0 M49.7120678,1.30346823 C60.519527,1.30346823 70.6287654,5.14348565 78.7929604,11.5708875 L73.1810115,16.9424801 C66.3297207,11.7716216 58.6567739,8.97307532 49.7120678,8.97307532 C26.8802506,8.97307532 8.91478229,27.7808185 8.91478229,51.3996628 C8.91478229,75.0132934 26.4189262,93.9826665 49.2507434,93.9826665 C56.6568702,93.9826665 63.3510613,92.0900307 69.4318156,88.4168572 C71.1461968,90.1296145 75.1622127,93.9318313 75.1622127,93.9318313 C67.7112003,98.7768227 58.9684795,101.600135 49.7120678,101.600135 C23.4340326,101.600135 1.2468227,78.9250015 1.2468227,51.453105 C1.2468227,23.9786016 23.3105972,1.30346823 49.7120678,1.30346823" id="Fill-3" fill="#FFFFFF" mask="url(#mask-2)"></path>
                </g>
                <path d="M30.203597,51.4868592 C30.203597,45.2341221 35.2756717,40.1662376 41.5309812,40.1662376 C47.7875375,40.1662376 52.8583654,45.2341221 52.8583654,51.4868592 C52.8583654,57.7382929 47.7875375,62.8087843 41.5309812,62.8087843 C35.2756717,62.8087843 30.203597,57.7382929 30.203597,51.4868592" id="Fill-6" fill="#B0097F"></path>
                <path d="M65.4374749,28.6603143 L56.906714,36.8030804 C59.1771782,39.2040689 62.3416142,43.9682453 62.3416142,51.4319044 C62.3416142,60.5027398 56.9603274,66.2145376 54.0003703,69.0013527 L62.4949734,77.1688846 C65.6706308,75.1315638 74.1128673,65.8873671 74.1128673,51.467098 C74.1128673,39.9327076 68.8400541,32.3530398 65.4374749,28.6603143" id="Fill-8" fill="#B0097F"></path>
                <g id="Group-12" transform="translate(71.060574, 13.319083)">
                    <mask id="mask-4" fill="white">
                        <use xlink:href="#path-3"></use>
                    </mask>
                    <g id="Clip-11"></g>
                    <path d="M10.7944687,0.0280824989 L2.91828973,7.54388033 C7.12880999,12.358892 14.2070224,22.2639471 14.2070224,38.3787249 C14.2070224,58.272257 1.00566371,70.2889307 0.041869768,71.1309712 L7.79336649,78.5555262 C9.42795104,77.2898586 25.9795224,63.8993294 25.9795224,38.3787249 C25.9795224,19.0378632 16.2256284,5.86501325 10.7944687,0.0280824989" id="Fill-10" fill="#B0097F" mask="url(#mask-4)"></path>
                </g>
            </g>
        </g>
        <g id="Group-16" transform="translate(0.000000, 1.573930)">
            <g id="light" transform="translate(0.000000, 71.351485)">
                <g id="Group-2">
                    <g id="Group-15">
                        <ellipse id="Oval" fill="#B0097F" cx="23.4204329" cy="23.397899" rx="23.4204329" ry="23.397899"></ellipse>
                        <g id="Page-1" transform="translate(5.279499, 5.747104)" fill="#FFFFFF">
                            <path d="M18.0982401,8.39838357 C17.492345,8.39838357 17.0016475,7.90815817 17.0016475,7.30284601 L17.0016475,1.09553756 C17.0016475,0.490594261 17.492345,0 18.0982401,0 C18.703766,0 19.1944635,0.490594261 19.1944635,1.09553756 L19.1944635,7.30321487 C19.1944635,7.90815817 18.703766,8.39838357 18.0982401,8.39838357" id="Fill-1"></path>
                            <path d="M18.0982401,36.1490508 C17.492345,36.1490508 17.0016475,35.6588254 17.0016475,35.0535133 L17.0016475,28.8465737 C17.0016475,28.2416304 17.492345,27.7510361 18.0982401,27.7510361 C18.703766,27.7510361 19.1944635,28.2416304 19.1944635,28.8465737 L19.1944635,35.0538821 C19.1944635,35.6588254 18.703766,36.1490508 18.0982401,36.1490508" id="Fill-3"></path>
                            <path d="M35.0939492,19.1693252 L28.8802934,19.1693252 C28.2747675,19.1693252 27.7837008,18.6794687 27.7837008,18.0741566 C27.7837008,17.4692133 28.2747675,16.978619 28.8802934,16.978619 L35.0939492,16.978619 C35.6994751,16.978619 36.1905418,17.4692133 36.1905418,18.0741566 C36.1901726,18.6794687 35.6991058,19.1693252 35.0939492,19.1693252" id="Fill-5"></path>
                            <path d="M7.31581761,19.1693252 L1.10216187,19.1693252 C0.496635972,19.1693252 0.00593845751,18.6794687 0.00593845751,18.0745254 C0.00593845751,17.4695821 0.496635972,16.9789879 1.10216187,16.9789879 L7.31581761,16.9789879 C7.92134352,16.9789879 8.41241025,17.4695821 8.41241025,18.0745254 C8.41241025,18.6794687 7.92134352,19.1693252 7.31581761,19.1693252" id="Fill-7"></path>
                            <path d="M30.115714,31.1763431 C29.8351044,31.1763431 29.5544948,31.0693715 29.3403454,30.8554281 L24.9469596,26.4662694 C24.5186608,26.0383826 24.5186608,25.3452799 24.9469596,24.9177621 C25.3748892,24.4898753 26.0690287,24.4898753 26.4973275,24.9177621 L30.8910825,29.3065519 C31.3193813,29.7344387 31.3193813,30.4279102 30.8910825,30.8554281 C30.6773023,31.0693715 30.3963235,31.1763431 30.115714,31.1763431" id="Fill-9"></path>
                            <path d="M10.4745213,11.5533104 C10.194281,11.5533104 9.91367142,11.4463387 9.69952202,11.2323954 L5.305767,6.84323664 C4.87746819,6.41571879 4.87746819,5.7222472 5.305767,5.29436048 C5.7340658,4.86647375 6.42820525,4.86647375 6.85650406,5.29436048 L11.2502591,9.68351921 C11.6785579,10.1110371 11.6785579,10.8048775 11.2502591,11.2327642 C11.0357405,11.4463387 10.7551309,11.5533104 10.4745213,11.5533104" id="Fill-11"></path>
                            <path d="M6.08113553,31.1770809 C5.80052596,31.1770809 5.5199164,31.0701092 5.305767,30.8561658 C4.87746819,30.428648 4.87746819,29.7351764 5.305767,29.3072897 L9.6991528,24.9181309 C10.1274516,24.4902442 10.8212218,24.4902442 11.2495206,24.9181309 C11.6778194,25.3456488 11.6778194,26.0387515 11.2495206,26.4666382 L6.85613484,30.8561658 C6.64272388,31.0701092 6.36174509,31.1770809 6.08113553,31.1770809" id="Fill-13"></path>
                            <path d="M25.7230666,11.554417 C25.442457,11.554417 25.1614782,11.4474453 24.9476981,11.233502 C24.5193993,10.8059841 24.5193993,10.1117748 24.9476981,9.68425695 L29.3410839,5.29472934 C29.7693827,4.86647375 30.4635221,4.86647375 30.8914517,5.29472934 C31.3197505,5.7222472 31.3197505,6.41608766 30.8914517,6.84360551 L26.4980659,11.2331331 C26.2839165,11.4474453 26.0036762,11.554417 25.7230666,11.554417" id="Fill-15"></path>
                            <path d="M18.0982401,13.1239498 C15.3656199,13.1239498 13.1425275,15.3445343 13.1425275,18.0745254 C13.1425275,20.8041476 15.3656199,23.0254699 18.0982401,23.0254699 C20.8308604,23.0254699 23.0535835,20.8045165 23.0535835,18.0745254 C23.0535835,15.3445343 20.8308604,13.1239498 18.0982401,13.1239498 M18.0982401,25.216545 C14.1567834,25.216545 10.9497115,22.0125588 10.9497115,18.0745254 C10.9497115,14.136861 14.1567834,10.9328747 18.0982401,10.9328747 C22.0400661,10.9328747 25.2467688,14.136861 25.2467688,18.0745254 C25.2467688,22.0125588 22.0400661,25.216545 18.0982401,25.216545" id="Fill-17"></path>
                        </g>
                    </g>
                </g>
            </g>
            <g id="eye" transform="translate(205.237548, 0.000000)">
                <ellipse id="Oval" fill="#B0097F" cx="23.4204329" cy="23.397899" rx="23.4204329" ry="23.397899"></ellipse>
                <g id="Group-9" transform="translate(1.419420, 10.871751)" fill="#FFFFFF">
                    <g id="Page-1" transform="translate(0.330571, 0.042171)">
                        <path d="M21.7378644,20.6337266 C17.1177911,20.6337266 13.3728667,16.8924054 13.3728667,12.2767773 C13.3728667,7.66158346 17.1177911,3.9198279 21.7378644,3.9198279 C26.3579377,3.9198279 30.1028621,7.66114913 30.1028621,12.2767773 C30.1028621,16.8924054 26.3579377,20.6337266 21.7378644,20.6337266 M43.4731204,12.1959918 C43.4722509,12.17775 43.4705119,12.1603767 43.4692076,12.1425692 C43.4683381,12.1334483 43.4679034,12.1243273 43.4670339,12.1156407 C43.4657296,12.1026108 43.4635559,12.0895809 43.4618169,12.0769853 C43.4600779,12.0617838 43.4583389,12.0465822 43.4557304,12.031815 C43.4552957,12.0300777 43.4548609,12.027906 43.4548609,12.0261687 C43.4013868,11.6904314 43.2431384,11.3755419 43.0005486,11.1331856 C41.6137006,9.4909827 39.9638297,8.02946123 38.2861349,6.69476421 C34.6729393,3.81862894 30.5406539,1.41243906 25.9792717,0.443882486 C23.3429562,-0.115534944 20.6901203,-0.139423111 18.0398929,0.33399692 C15.6292119,0.76485258 13.3059155,1.66044167 11.131303,2.77058992 C7.72765625,4.50791113 4.61920381,6.90324275 1.91072007,9.58870702 C1.40945494,10.0855809 0.910798303,10.5928787 0.455181777,11.1327512 C-0.151727259,11.8511336 -0.151727259,12.7019866 0.455181777,13.420369 C1.84202979,15.0625718 3.4919007,16.523659 5.16959553,17.8587903 C8.78322583,20.7349256 12.9155112,23.1406811 17.4768935,24.1092377 C20.1132089,24.6690895 22.7664796,24.6929776 25.416707,24.2195576 C27.8269532,23.7887019 30.1502497,22.8931129 32.3252969,21.7829646 C35.7289437,20.0452091 38.8373961,17.6503118 41.5458798,14.9648475 C42.047145,14.4675393 42.5458016,13.9606758 43.0014181,13.4208033 C43.2440078,13.1780126 43.4022563,12.8635575 43.4557304,12.5273858 C43.4557304,12.5256485 43.4561652,12.5234769 43.4565999,12.5217396 C43.4592084,12.506538 43.4609474,12.4917708 43.4626864,12.4765692 C43.4644254,12.4639736 43.4665991,12.4509437 43.4679034,12.4379138 C43.4687729,12.4287929 43.4692076,12.4201063 43.4700771,12.4109853 C43.4713814,12.3936121 43.4731204,12.3762389 43.4739899,12.357997 C43.4752941,12.3310686 43.4761636,12.3041401 43.4761636,12.2767773 C43.4761636,12.2494145 43.4744246,12.2229203 43.4731204,12.1959918" id="Fill-1"></path>
                        <path d="M21.9250922,9.56887372 C23.4545378,9.56887372 24.694006,10.8075837 24.694006,12.3351234 C24.694006,13.8630974 23.4545378,15.1013731 21.9250922,15.1013731 C20.3956467,15.1013731 19.1561784,13.8630974 19.1561784,12.3351234 C19.1561784,10.8075837 20.3956467,9.56887372 21.9250922,9.56887372" id="Fill-3"></path>
                    </g>
                </g>
            </g>
            <g id="heater" transform="translate(23.620690, 0.000000)">
                <ellipse id="Oval" fill="#B0097F" cx="23.4204329" cy="23.397899" rx="23.4204329" ry="23.397899"></ellipse>
                <g id="Page-1" transform="translate(9.404059, 1.773754)">
                    <g id="Group-4" transform="translate(0.058742, 4.371149)">
                        <g id="Group"></g>
                    </g>
                    <g id="Group-8" transform="translate(17.810388, 4.210913)"></g>
                    <g id="Group-5" transform="translate(1.684308, 0.218487)" fill="#FFFFFF">
                        <path d="M2.3624562,6.14246537 C10.6390751,21.4851762 1.90479269,24.3086501 4.8143401,36.4353917 C5.21801865,38.1179746 3.78580582,38.0504139 3.25925107,37.1709185 C-4.33087259,24.5016806 5.33485176,19.1865042 1.8810232,6.51163628 C1.58894041,5.44071893 1.81454919,5.12664215 2.3624562,6.14246537" id="Fill-1"></path>
                        <path d="M11.4722161,0.89806685 C19.7496407,16.2407777 11.0149554,19.0646537 13.9245029,31.1909932 C14.3277785,32.8731739 12.8955657,32.8064175 12.3686081,31.9261178 C4.77888729,19.2572821 14.4446116,13.9425078 10.9907831,1.26683561 C10.6991032,0.196722549 10.9247119,-0.117756375 11.4722161,0.89806685" id="Fill-3"></path>
                        <path d="M20.1157242,5.87343042 C28.392746,21.2161413 19.6580607,24.0400173 22.568011,36.1667589 C22.9708838,37.8489396 21.538671,37.7817811 21.0121162,36.9018835 C13.4223954,24.2330478 23.0877169,18.9178714 19.6342912,6.24300348 C19.3422084,5.17168397 19.5674143,4.85800934 20.1157242,5.87343042" id="Fill-6"></path>
                    </g>
                </g>
            </g>
            <g id="volet" transform="translate(226.758621, 71.351485)">
                <ellipse id="Oval" fill="#B0097F" cx="23.4204329" cy="23.397899" rx="23.4204329" ry="23.397899"></ellipse>
                <g id="Group-3" transform="translate(6.623961, 6.144903)" fill="#FFFFFF">
                    <g id="Page-1">
                        <path d="M22.9492641,20.5582662 L22.7189956,20.7231084 L22.7189956,20.7291996 L17.7602177,23.907267 C19.0846426,24.5125769 24.7437569,26.9878757 30.1424849,27.7020652 C32.366253,24.8955591 33.7177459,21.3634426 33.7779817,17.5088747 C33.8126744,15.2749385 33.4100859,13.1365575 32.6502762,11.1732976 C28.8870643,16.2708446 23.0255119,20.5034456 22.9492641,20.5582662" id="Fill-1"></path>
                        <path d="M22.8234552,13.6893311 L22.8242176,13.9459216 L22.8242176,13.954297 L22.8242176,13.9965544 L22.8234552,13.9965544 L22.7380576,19.4896467 C24.1150935,18.4522445 29.0929334,14.549328 32.2015577,10.1206675 C30.0723369,5.56675735 25.9641035,2.11078038 20.9641517,0.874653787 C22.7750378,6.78080345 22.8230739,13.5983443 22.8234552,13.6893311" id="Fill-3"></path>
                        <g id="Group-7" transform="translate(4.956109, 0.229561)">
                            <path d="M11.7496008,9.56408695 L12.0450612,9.72702572 L12.0469674,9.72588363 L16.8742178,13.0352918 C16.831519,11.4062849 16.5635079,5.43465512 14.9093111,0.41362844 C14.0271236,0.257161538 13.1209181,0.167697494 12.1960319,0.153230968 C7.46828485,0.079375545 3.16523826,1.95393278 0.0508954301,5.03263797 C5.94104071,6.39211074 11.6764029,9.52373296 11.7496008,9.56408695" id="Fill-5"></path>
                        </g>
                        <path d="M17.043488,24.6587649 L16.7827204,24.5331346 L16.7766206,24.5369416 L11.9882565,21.2541822 C12.1247402,22.9193555 12.7408227,29.0192805 14.7335598,33.973685 C15.3545985,34.0528702 15.9863118,34.0996961 16.6275561,34.1095942 C21.6778314,34.188018 26.2443143,32.0435459 29.3937311,28.5826198 C23.2832296,27.6312554 17.1155422,24.6934085 17.043488,24.6587649" id="Fill-8"></path>
                        <path d="M10.9184994,13.8591224 L11.1724047,13.671819 L11.1819357,13.6855241 L16.0781904,10.5478107 C15.175416,10.0669891 9.67413473,7.21327645 4.22775185,6.0852681 C1.65438741,8.99418196 0.0672887147,12.7988783 0.00209681547,16.9842728 C-0.0341209063,19.3088151 0.402397951,21.5309497 1.2232059,23.5589282 C4.9075013,18.3319439 10.8418703,13.9158464 10.9184994,13.8591224" id="Fill-10"></path>
                        <path d="M10.9726354,20.8746262 L10.9550984,20.5681643 L10.9840725,20.5666415 L10.9550984,20.5468452 L11.0412584,15.0027394 C9.53917606,16.1749087 4.65817088,20.1566297 1.68946141,24.6050865 C3.96393434,29.2808201 8.34056009,32.7588775 13.6111917,33.7943762 C11.4038169,27.9445699 10.9779727,20.9663745 10.9726354,20.8746262" id="Fill-12"></path>
                    </g>
                </g>
            </g>
        </g>
    </g>
</svg>
