<svg width="221px" height="259px" viewBox="530 142 221 259" version="1.1" xmlns="http://www.w3.org/2000/svg">
    <defs>
        <polygon id="path-1" points="128.612644 0 5.68471312e-15 0 0 163.48689 128.612644 163.48689 128.612644 0"></polygon>
        <polygon id="path-3" points="41.3813063 124.804643 41.3813063 0.0446159097 0.0666938969 0.0446159097 0.0666938969 124.804643 41.3813063 124.804643"></polygon>
    </defs>
    <g id="house+logo" stroke="none" stroke-width="1" fill="none" fill-rule="evenodd" transform="translate(530.000000, 142.000000)">
        <g id="house" fill-opacity="0.2" fill="#FFFFFF">
            <polygon id="Shape" points="219.814828 80.9555366 109.97468 0 0 81.0343543 0 258.291873 219.94936 258.291873"></polygon>
        </g>
        <g id="logo" transform="translate(32.611765, 70.400000)">
            <path d="M79.6506942,162.012285 C37.2663951,162.012285 1.45790849,125.05126 1.45790849,81.3039682 C1.45790849,37.5546057 37.2663951,0.595651315 79.6506942,0.595651315 C96.5817729,0.595651315 112.805818,6.30713203 126.571132,17.1150428 L127.524436,17.8647005 L117.107603,27.8090553 L116.452206,27.3161864 C105.308478,18.9291316 93.2710271,14.8495026 79.6506942,14.8495026 C43.7667377,14.8495026 15.658168,44.0033189 15.658168,81.2190622 C15.658168,118.575625 43.4449975,147.837127 78.9158556,147.837127 C90.3336587,147.837127 100.98286,144.908906 110.565553,139.135299 L111.211019,138.748045 L111.749239,139.282331 C114.440337,141.964118 120.793712,147.967592 120.857266,148.027648 L121.832416,148.947118 L120.71427,149.673996 C108.265707,157.744206 94.0674332,162.012285 79.6506942,162.012285" id="Fill-1" fill="#FFFFFF"></path>
            <g id="Group-5" transform="translate(0.000000, 0.067926)">
                <mask id="mask-2" fill="white">
                    <use xlink:href="#path-1"></use>
                </mask>
                <g id="Clip-4"></g>
                <path d="M79.1858109,0 C58.2945479,0 38.4896545,8.54651229 23.4195049,24.0677407 C8.31757859,39.6200323 0,60.1030837 0,81.7458266 C0,103.363719 8.34339724,123.848841 23.4949749,139.421842 C38.5909431,154.940999 58.3680318,163.487511 79.1858109,163.487511 C93.7892386,163.487511 108.168243,159.167661 120.773704,150.993906 L123.009996,149.544292 L121.057709,147.69914 C120.996141,147.639084 114.650711,141.645964 111.971529,138.974532 L110.89509,137.901817 L109.604157,138.678396 C100.172404,144.360885 89.6920169,147.243547 78.4509723,147.243547 C43.5362083,147.243547 16.1863098,118.433496 16.1863098,81.6609206 C16.1863098,45.0250231 43.8599345,16.3267998 79.1858109,16.3267998 C92.5896642,16.3267998 104.43844,20.3401608 115.407396,28.5967502 L116.718189,29.582488 L117.909819,28.4435053 L126.851018,19.9094183 L128.612644,18.2278656 L126.70405,16.7285501 C112.763963,5.78396143 96.333369,0 79.1858109,0 M79.1858109,2.07087771 C96.4008947,2.07087771 112.50379,8.17168343 125.508448,18.3831814 L116.569235,26.9172684 C105.655889,18.7020966 93.4337356,14.2559221 79.1858109,14.2559221 C42.8172581,14.2559221 14.2002595,44.1366166 14.2002595,81.6609206 C14.2002595,119.176941 42.0824195,149.314424 78.4509723,149.314424 C90.248111,149.314424 100.911215,146.30751 110.597182,140.471777 C113.328001,143.19291 119.725069,149.23366 119.725069,149.23366 C107.856433,156.931113 93.9302482,161.416634 79.1858109,161.416634 C37.3278151,161.416634 1.98605028,125.391645 1.98605028,81.7458266 C1.98605028,38.0958663 37.1311961,2.07087771 79.1858109,2.07087771" id="Fill-3" fill="#FFFFFF" mask="url(#mask-2)"></path>
            </g>
            <path d="M48.1109803,81.7994534 C48.1109803,71.865453 56.1902329,63.8138805 66.1542472,63.8138805 C76.1202475,63.8138805 84.197514,71.865453 84.197514,81.7994534 C84.197514,91.7313828 76.1202475,99.7870971 66.1542472,99.7870971 C56.1902329,99.7870971 48.1109803,91.7313828 48.1109803,81.7994534" id="Fill-6" fill="#960F7C"></path>
            <path d="M104.23464,45.5339106 L90.6460844,58.4706836 C94.262682,62.2852404 99.3032776,69.8542984 99.3032776,81.7121441 C99.3032776,96.1233821 90.7314846,105.197968 86.0166012,109.625505 L99.5475618,122.601624 C104.606032,119.364843 118.053578,104.678178 118.053578,81.7680578 C118.053578,63.442861 109.654572,51.4007071 104.23464,45.5339106" id="Fill-8" fill="#960F7C"></path>
            <g id="Group-12" transform="translate(113.191613, 21.160617)">
                <mask id="mask-4" fill="white">
                    <use xlink:href="#path-3"></use>
                </mask>
                <g id="Clip-11"></g>
                <path d="M17.1943915,0.0446159097 L4.6485119,11.9852968 C11.3554037,19.635119 22.6302112,35.3717187 22.6302112,60.9739798 C22.6302112,92.5797153 1.60191077,111.671137 0.0666938969,113.008924 L12.4139685,124.804643 C15.0176804,122.793821 41.382498,101.519694 41.382498,60.9739798 C41.382498,30.2462964 25.8456266,9.31800628 17.1943915,0.0446159097" id="Fill-10" fill="#960F7C" mask="url(#mask-4)"></path>
            </g>
        </g>
    </g>
</svg>
