<svg width="215px" height="163px" viewBox="53 85 215 163" version="1.1" xmlns="http://www.w3.org/2000/svg" xmlns:xlink="http://www.w3.org/1999/xlink">
    <g id="404-icon" stroke="none" stroke-width="1" fill="none" fill-rule="evenodd" transform="translate(53.000000, 85.000000)">
        <g id="noun_26774_cc" fill="#960F7C">
            <g id="Group">
                <path d="M108.653219,121.476538 C102.921893,121.476538 97.9026623,123.476587 93.7199696,127.564044 C89.4934912,131.6515 87.3779475,136.442422 87.3779475,141.973592 C87.3779475,147.536947 89.4934912,152.307178 93.7199696,156.327967 C97.9049668,160.302777 102.919589,162.307423 108.653219,162.307423 C114.283147,162.307423 119.230938,160.302777 123.452807,156.327967 C127.686199,152.307178 129.801743,147.541545 129.801743,141.973592 C129.801743,136.442422 127.686199,131.6515 123.452807,127.564044 C119.230938,123.478886 114.283147,121.476538 108.653219,121.476538 L108.653219,121.476538 Z M92.7059835,49.8977738 C94.2546168,56.2082732 96.0175699,64.0291544 97.9902338,73.3167381 C100.013597,82.6365066 102.13375,94.2827689 104.339169,108.276215 L112.835912,108.276215 C115.078204,94.4413934 117.147657,82.7882345 119.17563,73.3971999 C121.113726,63.9624861 122.922769,56.0979256 124.469098,49.8127142 C126.086867,43.1366887 127.460357,37.3342477 128.518129,32.3663099 C129.578205,27.4213612 130.152029,23.4442523 130.152029,20.4119942 C130.152029,14.8095581 127.988091,10.0025438 123.667127,5.9817557 C119.394558,1.97476101 114.338455,0 108.526471,0 C102.624611,0 97.5938574,1.97476101 93.367379,5.9817557 C89.1478141,10.0025438 87.0783607,14.8095581 87.0783607,20.4119942 C87.0783607,23.2258562 87.6521846,27.3753831 88.8390092,32.9180476 C90.0281384,38.4791033 91.295621,44.1206208 92.7059835,49.8977738 L92.7059835,49.8977738 Z M93.4365144,91.5838522 C93.2798075,90.8413053 93.125405,90.1309431 92.9710026,89.4021896 C81.402343,92.0068511 70.4075074,97.7771073 61.4129898,106.75204 L75.0603209,120.122482 C81.2479406,113.949917 88.7952235,109.929129 96.7642324,108.050922 C95.6350206,102.089857 94.5265495,96.600067 93.4365144,91.5838522 L93.4365144,91.5838522 Z M77.8464781,16.0187831 C77.8464781,11.4577519 78.8420281,7.27833918 80.7847333,3.45295813 C51.2984785,8.6553844 23.0589657,22.5775644 0.244278469,45.2424874 C0.244278469,45.2424874 0.244278469,45.4861715 2.84217094e-14,45.4861715 L13.6473311,59.100298 C13.6473311,58.8566139 13.6473311,58.8566139 13.8916095,58.8566139 C32.2562805,40.4492665 54.7644673,28.6535753 78.4571743,23.3936764 C78.0492754,20.464869 77.8464781,18.0073376 77.8464781,16.0187831 L77.8464781,16.0187831 Z M83.388834,47.5138074 C64.1668839,51.8495457 45.8990025,61.4474819 30.9496211,76.3627898 L44.5969522,89.7332322 C56.9076652,77.5398301 71.9676633,69.7074544 87.8135006,66.1993225 C87.1498006,63.3509768 86.5068412,60.6497613 85.8892315,58.1347571 C85.0158208,54.5553591 84.1931093,51.0265371 83.388834,47.5138074 Z M214.45806,45.2447863 C192.332422,23.2626387 165.102286,9.49908322 136.583927,3.9426253 C138.422929,7.63466974 139.376998,11.653159 139.376998,16.0187831 C139.376998,18.292402 139.146547,20.9476395 138.710994,23.970702 C161.463459,29.5041709 183.038318,41.1320419 200.808424,58.8589128 C201.052703,59.1025969 201.052703,59.1025969 201.296981,59.3439821 L214.944312,45.7298556 C214.700034,45.7298556 214.45806,45.4884704 214.45806,45.2447863 L214.45806,45.2447863 Z M133.647977,48.0517516 C132.901314,51.2081507 132.103952,54.5254733 131.258196,58.0129151 C130.592191,60.7210274 129.88701,63.6613293 129.158784,66.7832448 C144.170387,70.5649466 158.382324,78.282377 170.103081,89.9769163 C170.34736,89.9769163 170.34736,89.9769163 170.34736,90.2206004 L183.994691,76.6064739 L183.750413,76.3627898 C169.407118,62.0520944 152.012648,52.6242773 133.647977,48.0517516 L133.647977,48.0517516 Z M153.287044,106.75204 C144.896309,98.3817198 134.76797,92.8022728 124.05659,89.9723185 C123.936755,90.551643 123.816921,91.1125763 123.697086,91.7010965 C122.581701,96.8690391 121.457098,102.528948 120.311755,108.648638 C127.460357,110.719953 134.214887,114.543035 139.883991,120.122482 C139.883991,120.366166 139.883991,120.366166 140.12827,120.366166 L153.531322,106.995724 C153.531322,106.75204 153.531322,106.75204 153.287044,106.75204 L153.287044,106.75204 Z" id="Shape"></path>
            </g>
        </g>
        <g id="title" transform="translate(89.975669, 132.070645)" font-size="16" font-family="Lato-Bold, Lato" line-spacing="20" fill="#FFFFFF" font-weight="bold">
            <text id="404">
                <tspan x="5.17367397" y="16.7788576">404</tspan>
            </text>
        </g>
    </g>
</svg>
