<svg width="405px" height="285px" viewBox="292 16 405 285" version="1.1" xmlns="http://www.w3.org/2000/svg" xmlns:xlink="http://www.w3.org/1999/xlink">
    <defs>
        <polygon id="path-1" points="142.122631 0 6.28185811e-15 0 0 171.359445 142.122631 171.359445 142.122631 0"></polygon>
        <polygon id="path-3" points="45.9112849 130.814492 45.9112849 0.0467643462 0.256820472 0.0467643462 0.256820472 130.814492 45.9112849 130.814492"></polygon>
    </defs>
    <g id="Group-16" stroke="none" stroke-width="1" fill="none" fill-rule="evenodd" transform="translate(292.000000, 16.000000)">
        <g id="Group-23" transform="translate(40.894102, 48.836289)">
            <g id="Page-1" transform="translate(82.651743, 62.210095)">
                <path d="M88.0175215,169.98784 C41.1810062,169.98784 1.61105303,131.246992 1.61105303,85.3930913 C1.61105303,39.5370202 41.1810062,0.798342681 88.0175215,0.798342681 C106.727108,0.798342681 124.655392,6.78485429 139.86667,18.1132096 L140.920113,18.8989664 L129.409053,29.3221821 L128.684811,28.8055795 C116.370501,20.0146542 103.068589,15.7385745 88.0175215,15.7385745 C48.3641708,15.7385745 17.3029646,46.296265 17.3029646,85.3040968 C17.3029646,124.459529 48.0086338,155.130091 87.2054925,155.130091 C99.8226673,155.130091 111.590504,152.060864 122.179801,146.009235 L122.893069,145.603333 L123.487826,146.163347 C126.461608,148.974273 133.482366,155.266839 133.552596,155.329786 L134.63018,156.293532 L133.394579,157.055412 C119.638369,165.514236 103.948652,169.98784 88.0175215,169.98784" id="Fill-1" fill="#FFFFFF"></path>
                <g id="Group-5" transform="translate(0.000000, 0.245205)">
                    <mask id="mask-2" fill="white">
                        <use xlink:href="#path-1"></use>
                    </mask>
                    <g id="Clip-4"></g>
                    <path d="M87.503805,0 C64.4180403,0 42.5327617,8.95806142 25.8795834,25.2266997 C9.19129029,41.527897 0,62.9972902 0,85.6822187 C0,108.3411 9.21982104,129.812664 25.9629809,146.135567 C42.64469,162.402035 64.4992432,171.360096 87.503805,171.360096 C103.641235,171.360096 119.530667,166.832227 133.460256,158.264873 L135.931458,156.745454 L133.774095,154.811451 C133.70606,154.748503 126.69408,148.46679 123.733466,145.666718 L122.543953,144.542347 L121.117416,145.356322 C110.694914,151.312445 99.1136249,154.333919 86.691776,154.333919 C48.1094256,154.333919 17.8865845,124.136548 17.8865845,85.5932241 C17.8865845,47.19316 48.4671573,17.1130013 87.503805,17.1130013 C102.315653,17.1130013 115.409071,21.3196218 127.53025,29.9737994 L128.978734,31.0070045 L130.295538,29.8131751 L140.175956,20.8681373 L142.122631,19.105611 L140.01355,17.5340974 C124.60914,6.06248257 106.452611,0 87.503805,0 M87.503805,2.17059884 C106.52723,2.17059884 124.321638,8.56518303 138.692357,19.2684059 L128.814134,28.2134437 C116.754406,19.6026781 103.248389,14.9424024 87.503805,14.9424024 C47.314954,14.9424024 15.6919116,46.2619731 15.6919116,85.5932241 C15.6919116,124.915793 46.502925,156.504518 86.691776,156.504518 C99.7281333,156.504518 111.511332,153.352808 122.214752,147.236061 C125.232428,150.088228 132.301469,156.419864 132.301469,156.419864 C119.186104,164.48798 103.797057,169.189497 87.503805,169.189497 C41.248878,169.189497 2.19467294,131.42976 2.19467294,85.6822187 C2.19467294,39.9303363 41.0316054,2.17059884 87.503805,2.17059884" id="Fill-3" fill="#FFFFFF" mask="url(#mask-2)"></path>
                </g>
                <path d="M53.16475,85.9124361 C53.16475,75.5000735 62.0926796,67.0607852 73.1033537,67.0607852 C84.1162226,67.0607852 93.0419574,75.5000735 93.0419574,85.9124361 C93.0419574,96.3226282 84.1162226,104.766258 73.1033537,104.766258 C62.0926796,104.766258 53.16475,96.3226282 53.16475,85.9124361" id="Fill-6" fill="#960F7C"></path>
                <path d="M115.183864,47.9005609 L100.167911,61.4602918 C104.164411,65.4585349 109.734491,73.3920737 109.734491,85.8209226 C109.734491,100.92612 100.262282,110.437684 95.0521288,115.078424 L110.004436,128.679397 C115.594268,125.286751 130.454398,109.892864 130.454398,85.8795288 C130.454398,66.6718996 121.173126,54.0498674 115.183864,47.9005609" id="Fill-8" fill="#960F7C"></path>
                <g id="Group-12" transform="translate(124.898592, 22.353595)">
                    <mask id="mask-4" fill="white">
                        <use xlink:href="#path-3"></use>
                    </mask>
                    <g id="Clip-11"></g>
                    <path d="M19.1836799,0.0467643462 L5.31993096,12.5624373 C12.7313415,20.5806294 25.1904998,37.07501 25.1904998,63.9101235 C25.1904998,97.037803 1.95330266,117.048554 0.256820472,118.450761 L13.9011022,130.814492 C16.7783184,128.70684 45.9126017,106.408278 45.9126017,63.9101235 C45.9126017,31.7027779 28.7436753,9.76670596 19.1836799,0.0467643462" id="Fill-10" fill="#960F7C" mask="url(#mask-4)"></path>
                </g>
            </g>
        </g>
        <g id="icon4" transform="translate(0.894533, 154.156889)">
            <g id="Group-2">
                <g id="Group-15">
                    <ellipse id="Oval" fill="#960F7C" cx="27.4696156" cy="27.1281164" rx="27.4696156" ry="27.1281164"></ellipse>
                    <g id="Page-1" transform="translate(6.192277, 6.663338)" fill="#FFFFFF">
                        <path d="M21.2272635,9.73729849 C20.5166145,9.73729849 19.9410798,9.16891876 19.9410798,8.46710451 L19.9410798,1.27019398 C19.9410798,0.568807405 20.5166145,0 21.2272635,0 C21.9374794,0 22.5130141,0.568807405 22.5130141,1.27019398 L22.5130141,8.46753219 C22.5130141,9.16891876 21.9374794,9.73729849 21.2272635,9.73729849" id="Fill-1"></path>
                        <path d="M21.2272635,41.9121246 C20.5166145,41.9121246 19.9410798,41.3437448 19.9410798,40.6419306 L19.9410798,33.4454477 C19.9410798,32.7440612 20.5166145,32.1752537 21.2272635,32.1752537 C21.9374794,32.1752537 22.5130141,32.7440612 22.5130141,33.4454477 L22.5130141,40.6423583 C22.5130141,41.3437448 21.9374794,41.9121246 21.2272635,41.9121246" id="Fill-3"></path>
                        <path d="M41.1613782,22.2254009 L33.8734371,22.2254009 C33.1632212,22.2254009 32.5872534,21.6574489 32.5872534,20.9556346 C32.5872534,20.254248 33.1632212,19.6854406 33.8734371,19.6854406 L41.1613782,19.6854406 C41.8715941,19.6854406 42.4475618,20.254248 42.4475618,20.9556346 C42.4471288,21.6574489 41.871161,22.2254009 41.1613782,22.2254009" id="Fill-5"></path>
                        <path d="M8.58065685,22.2254009 L1.29271578,22.2254009 C0.582499877,22.2254009 0.00696516354,21.6574489 0.00696516354,20.9560623 C0.00696516354,20.2546757 0.582499877,19.6858683 1.29271578,19.6858683 L8.58065685,19.6858683 C9.29087275,19.6858683 9.86684052,20.2546757 9.86684052,20.9560623 C9.86684052,21.6574489 9.29087275,22.2254009 8.58065685,22.2254009" id="Fill-7"></path>
                        <path d="M35.3224507,36.1466414 C34.9933263,36.1466414 34.6642019,36.0226157 34.4130279,35.7745644 L29.2600652,30.6856626 C28.7577173,30.1895599 28.7577173,29.3859591 29.2600652,28.8902841 C29.7619799,28.3941814 30.5761299,28.3941814 31.0784777,28.8902841 L36.2318735,33.9787581 C36.7342214,34.4748608 36.7342214,35.2788893 36.2318735,35.7745644 C35.9811327,36.0226157 35.6515752,36.1466414 35.3224507,36.1466414" id="Fill-9"></path>
                        <path d="M12.2854721,13.3952005 C11.9567807,13.3952005 11.6276563,13.2711749 11.3764824,13.0231235 L6.22308651,7.93422178 C5.72073868,7.43854676 5.72073868,6.63451825 6.22308651,6.13841555 C6.72543434,5.64231285 7.53958428,5.64231285 8.04193211,6.13841555 L13.195328,11.2273173 C13.6976758,11.7229923 13.6976758,12.5274485 13.195328,13.0235512 C12.943721,13.2711749 12.6145965,13.3952005 12.2854721,13.3952005" id="Fill-11"></path>
                        <path d="M7.13250931,36.1474967 C6.80338487,36.1474967 6.47426043,36.0234711 6.22308651,35.7754197 C5.72073868,35.2797447 5.72073868,34.4757162 6.22308651,33.9796135 L11.3760493,28.8907117 C11.8783971,28.394609 12.692114,28.394609 13.1944618,28.8907117 C13.6968097,29.3863868 13.6968097,30.1899876 13.1944618,30.6860903 L8.04149905,35.7754197 C7.79119125,36.0234711 7.46163375,36.1474967 7.13250931,36.1474967" id="Fill-13"></path>
                        <path d="M30.1703541,13.3964836 C29.8412296,13.3964836 29.5116721,13.2724579 29.2609313,13.0244065 C28.7585834,12.5287315 28.7585834,11.7238477 29.2609313,11.2281726 L34.4138941,6.13884322 C34.9162419,5.64231285 35.7303918,5.64231285 36.2323066,6.13884322 C36.7346544,6.63451825 36.7346544,7.43897444 36.2323066,7.93464946 L31.0793438,13.0239789 C30.8281699,13.2724579 30.4994785,13.3964836 30.1703541,13.3964836" id="Fill-15"></path>
                        <path d="M21.2272635,15.2162396 C18.0221977,15.2162396 15.4147526,17.7908415 15.4147526,20.9560623 C15.4147526,24.1208554 18.0221977,26.6963126 21.2272635,26.6963126 C24.4323293,26.6963126 27.0393413,24.121283 27.0393413,20.9560623 C27.0393413,17.7908415 24.4323293,15.2162396 21.2272635,15.2162396 M21.2272635,29.2367006 C16.6043643,29.2367006 12.8428184,25.5219178 12.8428184,20.9560623 C12.8428184,16.3906344 16.6043643,12.6758516 21.2272635,12.6758516 C25.8505958,12.6758516 29.6117086,16.3906344 29.6117086,20.9560623 C29.6117086,25.5219178 25.8505958,29.2367006 21.2272635,29.2367006" id="Fill-17"></path>
                    </g>
                </g>
            </g>
        </g>
        <g id="icon3" transform="translate(293.257426, 0.916780)">
            <ellipse id="Oval" fill="#960F7C" cx="27.4039256" cy="27.1272602" rx="27.4039256" ry="27.1272602"></ellipse>
            <g id="Group-9" transform="translate(4.187144, 14.107079)" fill="#FFFFFF">
                <g id="Page-1" transform="translate(0.069795, 0.044180)">
                    <path d="M22.9835923,21.6167258 C18.0987573,21.6167258 14.1392232,17.6971665 14.1392232,12.861648 C14.1392232,8.02658443 18.0987573,4.10657011 22.9835923,4.10657011 C27.8684273,4.10657011 31.8279614,8.02612941 31.8279614,12.861648 C31.8279614,17.6971665 27.8684273,21.6167258 22.9835923,21.6167258 M45.9644266,12.7770139 C45.9635073,12.7579029 45.9616687,12.7397021 45.9602897,12.7210462 C45.9593703,12.7114907 45.9589107,12.7019352 45.9579914,12.6928348 C45.9566124,12.6791841 45.9543141,12.6655335 45.9524754,12.6523378 C45.9506368,12.6364121 45.9487981,12.6204863 45.9460401,12.6050156 C45.9455805,12.6031955 45.9451208,12.6009204 45.9451208,12.5991003 C45.8885823,12.2473683 45.7212651,11.9174774 45.4647733,11.6635751 C43.9984495,9.943137 42.2540297,8.41198805 40.4801915,7.01370551 C36.6599352,4.00054999 32.2908417,1.47972824 27.4680611,0.465029229 C24.6806668,-0.121039076 21.8758053,-0.146065285 19.0737018,0.349908669 C16.5248724,0.80129047 14.0684352,1.73954578 11.7692026,2.90258196 C8.17050365,4.72266986 4.88391569,7.23211606 2.02021736,10.0455169 C1.49022632,10.5660621 0.962993258,11.0975277 0.481266798,11.6631201 C-0.160422266,12.4157264 -0.160422266,13.3071145 0.481266798,14.0597208 C1.94759066,15.7801589 3.69201043,17.3108528 5.4658486,18.7095904 C9.28656458,21.7227459 13.6556581,24.2431126 18.4784386,25.2578117 C21.265833,25.844335 24.0711541,25.8693612 26.8732577,25.3733872 C29.4216274,24.9220054 31.8780646,23.9837501 34.1777569,22.8207139 C37.7764558,21.000171 41.0630438,18.4911798 43.9267421,15.677779 C44.4567331,15.1567788 44.9839662,14.6257682 45.4656927,14.0601758 C45.7221844,13.8058186 45.8895016,13.4763826 45.9460401,13.1241956 C45.9460401,13.1223755 45.9464998,13.1201004 45.9469595,13.1182803 C45.9497174,13.1023546 45.9515561,13.0868838 45.9533947,13.0709581 C45.9552334,13.0577624 45.9575317,13.0441118 45.9589107,13.0304611 C45.95983,13.0209056 45.9602897,13.0118052 45.961209,13.0022497 C45.962588,12.9840489 45.9644266,12.965848 45.965346,12.9467371 C45.9667249,12.9185257 45.9676443,12.8903143 45.9676443,12.861648 C45.9676443,12.8329816 45.9658056,12.8052252 45.9644266,12.7770139" id="Fill-1"></path>
                    <path d="M23.1815495,10.0247388 C24.7986427,10.0247388 26.109141,11.3224615 26.109141,12.9227737 C26.109141,14.5235411 24.7986427,15.8208087 23.1815495,15.8208087 C21.5644563,15.8208087 20.2539581,14.5235411 20.2539581,12.9227737 C20.2539581,11.3224615 21.5644563,10.0247388 23.1815495,10.0247388" id="Fill-3"></path>
                </g>
            </g>
        </g>
        <g id="icon2" transform="translate(57.015928, 3.763493)">
            <ellipse id="Oval" fill="#960F7C" cx="27.5379241" cy="27.2805216" rx="27.5379241" ry="27.2805216"></ellipse>
            <g id="Page-1" transform="translate(11.057365, 2.376395)">
                <g id="Group-4" transform="translate(0.069069, 4.788186)">
                    <g id="Group"></g>
                </g>
                <g id="Group-8" transform="translate(20.941591, 4.601361)"></g>
                <g id="Group-5" transform="translate(2.291729, 0.254743)" fill="#FFFFFF">
                    <path d="M2.46648807,6.853433 C12.1981999,24.742097 1.92836381,28.0340951 5.3494319,42.1731353 C5.82408023,44.1349242 4.14007344,44.0561526 3.52094633,43.0307147 C-5.40357911,28.2591569 5.9614535,22.0619858 1.90041546,7.28386374 C1.55698229,6.0352395 1.82225481,5.66904515 2.46648807,6.853433" id="Fill-1"></path>
                    <path d="M13.1778134,0.73878456 C22.9104726,18.6274486 12.6401628,21.9199155 16.0612309,36.0584869 C16.5354056,38.0198069 14.8513988,37.941973 14.231798,36.9155973 C5.30774622,22.1445085 16.6727788,15.9478062 12.6117408,1.16874642 C12.2687813,-0.0789400694 12.5340538,-0.445603292 13.1778134,0.73878456" id="Fill-3"></path>
                    <path d="M23.3409163,6.53975467 C33.0731019,24.4284187 22.8027921,27.7208856 26.2243339,41.8599259 C26.6980348,43.8212459 25.014028,43.7429431 24.3949009,42.7170363 C15.4708492,27.9459475 26.8354081,21.7487763 22.7748437,6.97065429 C22.4314106,5.72156117 22.6962094,5.3558357 23.3409163,6.53975467" id="Fill-6"></path>
                </g>
            </g>
        </g>
        <g id="icon1" transform="translate(348.909600, 151.611187)">
            <ellipse id="Oval" fill="#960F7C" cx="27.4039256" cy="27.1272602" rx="27.4039256" ry="27.1272602"></ellipse>
            <g id="Group-3" transform="translate(7.750605, 7.124331)" fill="#FFFFFF">
                <g id="Page-1">
                    <path d="M26.8526175,23.8350219 L26.5831836,24.0261381 L26.5831836,24.0332002 L20.7809858,27.7178156 C22.3306772,28.4196051 28.9523288,31.2894386 35.269306,32.1174619 C37.8713064,28.8636304 39.4526696,24.7685343 39.5231507,20.2995918 C39.5637442,17.7095914 39.0926809,15.2303766 38.203638,12.9541952 C33.8003557,18.8642337 26.9418341,23.7714636 26.8526175,23.8350219" id="Fill-1"></path>
                    <path d="M26.7054102,15.8712561 L26.7063024,16.1687442 L26.7063024,16.1784545 L26.7063024,16.2274473 L26.7054102,16.2274473 L26.6054877,22.5960765 C28.2167384,21.3933241 34.0412403,16.8683268 37.6785987,11.7337877 C35.1872268,6.45403567 30.3802396,2.44721496 24.5298649,1.01406373 C26.6487577,7.86158703 26.7049642,15.7657669 26.7054102,15.8712561" id="Fill-3"></path>
                    <g id="Group-7" transform="translate(5.799075, 0.266150)">
                        <path d="M13.7480459,11.0884945 L14.09376,11.2774039 L14.0959904,11.2760798 L19.7442896,15.1129703 C19.6943284,13.224318 19.3807322,6.30087784 17.4451794,0.479556147 C16.412944,0.298150186 15.3526054,0.194426583 14.2704088,0.177654256 C8.73853715,0.0920271115 3.70360166,2.26536762 0.0595520411,5.83478369 C6.95152983,7.41094108 13.662398,11.0417086 13.7480459,11.0884945" id="Fill-5"></path>
                    </g>
                    <path d="M19.9423504,28.5890939 L19.6372298,28.4434395 L19.6300925,28.4478532 L14.0272937,24.6418591 C14.1869913,26.5724422 14.907861,33.6446264 17.2395353,39.3887071 C17.966204,39.4805136 18.705363,39.5348029 19.4556741,39.5462787 C25.3649317,39.6372024 30.7081104,37.1509256 34.3931996,33.138367 C27.243386,32.0353658 20.02666,28.6292592 19.9423504,28.5890939" id="Fill-8"></path>
                    <path d="M12.7755856,16.0681102 L13.0726767,15.8509527 L13.0838288,15.8668423 L18.812869,12.2290128 C17.7565451,11.6715536 11.3195717,8.36299134 4.94683415,7.05519119 C1.9357759,10.4277531 0.0787335974,14.8388752 0.00245345488,19.6913743 C-0.0399244021,22.3864224 0.470840295,24.9627402 1.43125636,27.3139556 C5.74219962,21.253849 12.685923,16.1338754 12.7755856,16.0681102" id="Fill-10"></path>
                    <path d="M12.8389294,24.2018062 L12.8184096,23.8464977 L12.8523118,23.8447322 L12.8184096,23.8217806 L12.9192243,17.3940068 C11.1616584,18.7530067 5.45046153,23.3693691 1.97681551,28.5268597 C4.63814492,33.9478525 9.75917437,37.980273 15.9262678,39.1808186 C13.3434489,32.3986191 12.8451745,24.308178 12.8389294,24.2018062" id="Fill-12"></path>
                </g>
            </g>
        </g>
    </g>
</svg>
