<svg width="35px" height="44px" viewBox="145 408 35 44" version="1.1" xmlns="http://www.w3.org/2000/svg" xmlns:xlink="http://www.w3.org/1999/xlink">
    <g id="arrowsround-icon" stroke="none" stroke-width="1" fill="none" fill-rule="evenodd" transform="translate(145.000000, 408.000000)">
        <path d="M29.5195459,11.2057585 C29.0346814,11.5828754 28.9808075,12.2293615 29.3579244,12.714226 C31.4590041,15.407918 32.5903548,18.6942222 32.5903548,22.088274 C32.5903548,30.4925929 25.7483772,37.3345705 17.3440583,37.3345705 C16.2127077,37.3345705 15.0274832,37.172949 13.9500064,36.9574536 L16.2127077,34.6947524 C16.6436984,34.2637617 16.6436984,33.6172756 16.2127077,33.1862849 C15.781717,32.7552942 15.1352309,32.7552942 14.7042402,33.1862849 L9.69397314,38.0888043 L14.7042402,43.530062 C14.9197355,43.7455574 15.1891047,43.9071789 15.5123478,43.9071789 C15.781717,43.9071789 16.0510862,43.7994312 16.2127077,43.6378097 C16.6436984,43.2606928 16.6975722,42.5603329 16.2665815,42.1293422 L13.5190157,39.1124072 C14.758114,39.3817764 16.0510862,39.5433979 17.3440583,39.5433979 C26.9336017,39.5433979 34.7453083,31.7316912 34.7453083,22.1421479 C34.7453083,18.2093576 33.4523362,14.4920627 31.0280134,11.4212539 C30.7047704,10.8825155 30.0044105,10.8286417 29.5195459,11.2057585 L29.5195459,11.2057585 Z" id="Shape" fill="#FFFFFF"></path>
        <path d="M4.4143369,33.0246634 C4.62983226,33.0246634 4.84532761,32.9707895 5.06082297,32.809168 C5.54568752,32.4320512 5.59956136,31.7855651 5.27631833,31.3007005 C3.22911244,28.6070086 2.15163566,25.4284521 2.15163566,22.088274 C2.15163566,13.6839551 8.99361323,6.84197757 17.3979321,6.84197757 C18.4754089,6.84197757 19.5528857,6.94972525 20.6303625,7.21909444 L18.3676612,9.42792185 C17.9366705,9.85891256 17.9366705,10.5053986 18.3676612,10.9363893 C18.5831566,11.1518847 18.8525258,11.2596324 19.121895,11.2596324 C19.3912642,11.2596324 19.6606334,11.1518847 19.8761287,10.9363893 L24.8863958,6.03386998 L19.9300026,0.59261223 C19.5528857,0.161621517 18.8525258,0.107747678 18.4215351,0.538738391 C17.9905444,0.915855265 17.9366705,1.61621517 18.3676612,2.04720589 L21.115227,5.11801472 C19.9300026,4.84864552 18.6909043,4.687024 17.451806,4.687024 C7.8622626,4.687024 0.0505559305,12.4987307 0.0505559305,22.088274 C0.0505559305,25.9133166 1.28965423,29.5767377 3.60622931,32.5936727 C3.76785083,32.9169157 4.09109387,33.0246634 4.4143369,33.0246634 L4.4143369,33.0246634 Z" id="Shape" fill="#FFFFFF"></path>
    </g>
</svg>
